<svg width="162" height="45" viewBox="0 0 162 45" fill="none" xmlns="http://www.w3.org/2000/svg">
<rect x="0.5" y="0.5" width="160.964" height="43.6185" rx="5.5" stroke="#263159"/>
<path d="M40.619 17.77L43.401 25.219L46.17 17.77H47.717L44.09 27H42.712L39.072 17.77H40.619ZM47.4576 25.011C47.4576 24.5777 47.579 24.2007 47.8216 23.88C48.073 23.5507 48.4153 23.2993 48.8486 23.126C49.282 22.944 49.7846 22.853 50.3566 22.853C50.66 22.853 50.9676 22.8747 51.2796 22.918C51.6003 22.9613 51.882 23.0307 52.1246 23.126V22.697C52.1246 22.2203 51.9816 21.8477 51.6956 21.579C51.4096 21.3103 50.998 21.176 50.4606 21.176C50.0793 21.176 49.7196 21.2453 49.3816 21.384C49.0436 21.514 48.684 21.7003 48.3026 21.943L47.8216 20.981C48.2723 20.6777 48.723 20.4523 49.1736 20.305C49.633 20.1577 50.114 20.084 50.6166 20.084C51.5266 20.084 52.2416 20.3267 52.7616 20.812C53.2903 21.2887 53.5546 21.969 53.5546 22.853V25.388C53.5546 25.5527 53.5806 25.6697 53.6326 25.739C53.6933 25.8083 53.793 25.8473 53.9316 25.856V27C53.8016 27.026 53.6846 27.0433 53.5806 27.052C53.4766 27.0607 53.39 27.065 53.3206 27.065C53.0173 27.065 52.7876 26.9913 52.6316 26.844C52.4756 26.6967 52.3846 26.5233 52.3586 26.324L52.3196 25.934C52.025 26.3153 51.648 26.61 51.1886 26.818C50.7293 27.026 50.2656 27.13 49.7976 27.13C49.347 27.13 48.944 27.039 48.5886 26.857C48.2333 26.6663 47.956 26.4107 47.7566 26.09C47.5573 25.7693 47.4576 25.4097 47.4576 25.011ZM51.7866 25.427C51.8906 25.3143 51.973 25.2017 52.0336 25.089C52.0943 24.9763 52.1246 24.8767 52.1246 24.79V24.01C51.882 23.9147 51.6263 23.8453 51.3576 23.802C51.089 23.75 50.8246 23.724 50.5646 23.724C50.0446 23.724 49.62 23.828 49.2906 24.036C48.97 24.244 48.8096 24.53 48.8096 24.894C48.8096 25.0933 48.8616 25.284 48.9656 25.466C49.0783 25.648 49.2343 25.7953 49.4336 25.908C49.6416 26.0207 49.8973 26.077 50.2006 26.077C50.5126 26.077 50.8116 26.0163 51.0976 25.895C51.3836 25.7737 51.6133 25.6177 51.7866 25.427ZM65.6895 27H64.2595V23.191C64.2595 22.5583 64.1555 22.0947 63.9475 21.8C63.7395 21.5053 63.4362 21.358 63.0375 21.358C62.6389 21.358 62.2662 21.5097 61.9195 21.813C61.5815 22.1077 61.3432 22.4933 61.2045 22.97V27H59.7745V23.191C59.7745 22.5583 59.6705 22.0947 59.4625 21.8C59.2545 21.5053 58.9555 21.358 58.5655 21.358C58.1669 21.358 57.7942 21.5053 57.4475 21.8C57.1095 22.0947 56.8669 22.4803 56.7195 22.957V27H55.2895V20.201H56.5895V21.566C56.8582 21.0893 57.2092 20.7253 57.6425 20.474C58.0845 20.214 58.5872 20.084 59.1505 20.084C59.7139 20.084 60.1559 20.2313 60.4765 20.526C60.8059 20.8207 61.0095 21.189 61.0875 21.631C61.3822 21.1283 61.7419 20.747 62.1665 20.487C62.5999 20.2183 63.0939 20.084 63.6485 20.084C64.0472 20.084 64.3809 20.1577 64.6495 20.305C64.9182 20.4523 65.1262 20.656 65.2735 20.916C65.4209 21.1673 65.5249 21.462 65.5855 21.8C65.6549 22.1293 65.6895 22.4803 65.6895 22.853V27ZM70.3924 27.13C69.855 27.13 69.374 27.039 68.9494 26.857C68.5247 26.6663 68.1564 26.4063 67.8444 26.077C67.541 25.7477 67.307 25.375 67.1424 24.959C66.9777 24.5343 66.8954 24.0837 66.8954 23.607C66.8954 23.1303 66.9777 22.6797 67.1424 22.255C67.307 21.8303 67.541 21.4577 67.8444 21.137C68.1564 20.8077 68.5247 20.552 68.9494 20.37C69.3827 20.1793 69.8637 20.084 70.3924 20.084C70.921 20.084 71.3977 20.1793 71.8224 20.37C72.2557 20.552 72.624 20.8077 72.9274 21.137C73.2394 21.4577 73.4777 21.8303 73.6424 22.255C73.807 22.6797 73.8894 23.1303 73.8894 23.607C73.8894 24.0837 73.807 24.5343 73.6424 24.959C73.4777 25.375 73.2394 25.7477 72.9274 26.077C72.624 26.4063 72.2557 26.6663 71.8224 26.857C71.3977 27.039 70.921 27.13 70.3924 27.13ZM68.3644 23.62C68.3644 24.0533 68.4554 24.4433 68.6374 24.79C68.8194 25.1367 69.062 25.4097 69.3654 25.609C69.6687 25.8083 70.011 25.908 70.3924 25.908C70.765 25.908 71.103 25.8083 71.4064 25.609C71.7184 25.401 71.9654 25.1237 72.1474 24.777C72.3294 24.4217 72.4204 24.0317 72.4204 23.607C72.4204 23.1737 72.3294 22.7837 72.1474 22.437C71.9654 22.0903 71.7184 21.8173 71.4064 21.618C71.103 21.41 70.765 21.306 70.3924 21.306C70.011 21.306 69.6687 21.41 69.3654 21.618C69.062 21.826 68.8194 22.1033 68.6374 22.45C68.4554 22.788 68.3644 23.178 68.3644 23.62ZM77.5757 27.13C77.0037 27.13 76.462 27.039 75.9507 26.857C75.4393 26.6663 75.0017 26.3847 74.6377 26.012L75.1707 25.05C75.5607 25.3967 75.9507 25.648 76.3407 25.804C76.7393 25.96 77.1337 26.038 77.5237 26.038C77.9223 26.038 78.2473 25.9643 78.4987 25.817C78.75 25.661 78.8757 25.4357 78.8757 25.141C78.8757 24.9243 78.8107 24.764 78.6807 24.66C78.5507 24.556 78.36 24.465 78.1087 24.387C77.866 24.309 77.5713 24.2223 77.2247 24.127C76.7393 23.9797 76.332 23.828 76.0027 23.672C75.6733 23.5073 75.4263 23.308 75.2617 23.074C75.097 22.84 75.0147 22.541 75.0147 22.177C75.0147 21.735 75.1273 21.358 75.3527 21.046C75.578 20.734 75.89 20.4957 76.2887 20.331C76.696 20.1663 77.164 20.084 77.6927 20.084C78.1867 20.084 78.6417 20.162 79.0577 20.318C79.4823 20.4653 79.855 20.6993 80.1757 21.02L79.5647 21.969C79.2613 21.6917 78.9493 21.488 78.6287 21.358C78.3167 21.228 77.9787 21.163 77.6147 21.163C77.4067 21.163 77.2073 21.189 77.0167 21.241C76.826 21.2843 76.6657 21.371 76.5357 21.501C76.4143 21.6223 76.3537 21.7957 76.3537 22.021C76.3537 22.203 76.4057 22.3503 76.5097 22.463C76.6137 22.5757 76.7697 22.671 76.9777 22.749C77.1857 22.827 77.4413 22.9137 77.7447 23.009C78.2733 23.165 78.724 23.321 79.0967 23.477C79.4693 23.6243 79.7553 23.8193 79.9547 24.062C80.1627 24.296 80.2667 24.621 80.2667 25.037C80.2667 25.6957 80.0197 26.2113 79.5257 26.584C79.0403 26.948 78.3903 27.13 77.5757 27.13ZM87.8363 27.13C87.3077 27.13 86.8267 27.039 86.3933 26.857C85.9687 26.6663 85.6003 26.4063 85.2883 26.077C84.9763 25.7477 84.7337 25.3707 84.5603 24.946C84.3957 24.5213 84.3133 24.0707 84.3133 23.594C84.3133 22.9527 84.4563 22.3677 84.7423 21.839C85.037 21.3103 85.4443 20.8857 85.9643 20.565C86.493 20.2443 87.117 20.084 87.8363 20.084C88.5297 20.084 89.132 20.24 89.6433 20.552C90.1633 20.8553 90.5447 21.2627 90.7873 21.774L89.3963 22.216C89.2403 21.93 89.0193 21.709 88.7333 21.553C88.456 21.3883 88.1483 21.306 87.8103 21.306C87.429 21.306 87.0823 21.4057 86.7703 21.605C86.467 21.7957 86.2243 22.0643 86.0423 22.411C85.869 22.749 85.7823 23.1433 85.7823 23.594C85.7823 24.0273 85.8733 24.4217 86.0553 24.777C86.2373 25.1237 86.48 25.401 86.7833 25.609C87.0953 25.8083 87.442 25.908 87.8233 25.908C88.0573 25.908 88.2827 25.869 88.4993 25.791C88.7247 25.7043 88.9197 25.5917 89.0843 25.453C89.249 25.3057 89.366 25.1453 89.4353 24.972L90.8393 25.388C90.692 25.726 90.471 26.025 90.1763 26.285C89.8903 26.545 89.548 26.753 89.1493 26.909C88.7593 27.0563 88.3217 27.13 87.8363 27.13ZM95.0086 27.13C94.4712 27.13 93.9902 27.039 93.5656 26.857C93.1409 26.6663 92.7726 26.4063 92.4606 26.077C92.1572 25.7477 91.9232 25.375 91.7586 24.959C91.5939 24.5343 91.5116 24.0837 91.5116 23.607C91.5116 23.1303 91.5939 22.6797 91.7586 22.255C91.9232 21.8303 92.1572 21.4577 92.4606 21.137C92.7726 20.8077 93.1409 20.552 93.5656 20.37C93.9989 20.1793 94.4799 20.084 95.0086 20.084C95.5372 20.084 96.0139 20.1793 96.4386 20.37C96.8719 20.552 97.2402 20.8077 97.5436 21.137C97.8556 21.4577 98.0939 21.8303 98.2586 22.255C98.4232 22.6797 98.5056 23.1303 98.5056 23.607C98.5056 24.0837 98.4232 24.5343 98.2586 24.959C98.0939 25.375 97.8556 25.7477 97.5436 26.077C97.2402 26.4063 96.8719 26.6663 96.4386 26.857C96.0139 27.039 95.5372 27.13 95.0086 27.13ZM92.9806 23.62C92.9806 24.0533 93.0716 24.4433 93.2536 24.79C93.4356 25.1367 93.6782 25.4097 93.9816 25.609C94.2849 25.8083 94.6272 25.908 95.0086 25.908C95.3812 25.908 95.7192 25.8083 96.0226 25.609C96.3346 25.401 96.5816 25.1237 96.7636 24.777C96.9456 24.4217 97.0366 24.0317 97.0366 23.607C97.0366 23.1737 96.9456 22.7837 96.7636 22.437C96.5816 22.0903 96.3346 21.8173 96.0226 21.618C95.7192 21.41 95.3812 21.306 95.0086 21.306C94.6272 21.306 94.2849 21.41 93.9816 21.618C93.6782 21.826 93.4356 22.1033 93.2536 22.45C93.0716 22.788 92.9806 23.178 92.9806 23.62ZM105.871 27H104.441V23.191C104.441 22.5583 104.337 22.0947 104.129 21.8C103.93 21.5053 103.631 21.358 103.232 21.358C102.955 21.358 102.677 21.4273 102.4 21.566C102.131 21.7047 101.889 21.8953 101.672 22.138C101.455 22.372 101.299 22.645 101.204 22.957V27H99.7739V20.201H101.074V21.566C101.247 21.2627 101.473 21.0027 101.75 20.786C102.036 20.5607 102.357 20.3873 102.712 20.266C103.067 20.1447 103.444 20.084 103.843 20.084C104.25 20.084 104.584 20.1577 104.844 20.305C105.113 20.4523 105.321 20.656 105.468 20.916C105.624 21.1673 105.728 21.462 105.78 21.8C105.841 22.1293 105.871 22.4803 105.871 22.853V27ZM109.302 27L106.715 20.201H108.197L110.134 25.674L112.071 20.201H113.449L110.862 27H109.302ZM117.328 27.13C116.799 27.13 116.318 27.039 115.885 26.857C115.46 26.6663 115.092 26.4107 114.78 26.09C114.468 25.7607 114.225 25.388 114.052 24.972C113.887 24.5473 113.805 24.0967 113.805 23.62C113.805 22.9787 113.952 22.3937 114.247 21.865C114.541 21.3277 114.953 20.8987 115.482 20.578C116.01 20.2487 116.63 20.084 117.341 20.084C118.051 20.084 118.662 20.2487 119.174 20.578C119.694 20.8987 120.097 21.3233 120.383 21.852C120.669 22.3807 120.812 22.9483 120.812 23.555C120.812 23.659 120.807 23.7587 120.799 23.854C120.79 23.9407 120.781 24.0143 120.773 24.075H115.326C115.352 24.4737 115.46 24.8247 115.651 25.128C115.85 25.4227 116.101 25.6567 116.405 25.83C116.708 25.9947 117.033 26.077 117.38 26.077C117.761 26.077 118.121 25.9817 118.459 25.791C118.805 25.6003 119.039 25.349 119.161 25.037L120.383 25.388C120.235 25.7173 120.01 26.0163 119.707 26.285C119.412 26.545 119.061 26.753 118.654 26.909C118.246 27.0563 117.804 27.13 117.328 27.13ZM115.287 23.126H119.395C119.369 22.736 119.256 22.3937 119.057 22.099C118.866 21.7957 118.619 21.5617 118.316 21.397C118.021 21.2237 117.692 21.137 117.328 21.137C116.972 21.137 116.643 21.2237 116.34 21.397C116.045 21.5617 115.802 21.7957 115.612 22.099C115.421 22.3937 115.313 22.736 115.287 23.126ZM125.8 21.436C125.245 21.4447 124.751 21.5703 124.318 21.813C123.893 22.0557 123.59 22.398 123.408 22.84V27H121.978V20.201H123.304V21.722C123.538 21.254 123.846 20.8813 124.227 20.604C124.608 20.318 125.011 20.162 125.436 20.136C125.523 20.136 125.592 20.136 125.644 20.136C125.705 20.136 125.757 20.1403 125.8 20.149V21.436ZM129.258 27.13C128.686 27.13 128.145 27.039 127.633 26.857C127.122 26.6663 126.684 26.3847 126.32 26.012L126.853 25.05C127.243 25.3967 127.633 25.648 128.023 25.804C128.422 25.96 128.816 26.038 129.206 26.038C129.605 26.038 129.93 25.9643 130.181 25.817C130.433 25.661 130.558 25.4357 130.558 25.141C130.558 24.9243 130.493 24.764 130.363 24.66C130.233 24.556 130.043 24.465 129.791 24.387C129.549 24.309 129.254 24.2223 128.907 24.127C128.422 23.9797 128.015 23.828 127.685 23.672C127.356 23.5073 127.109 23.308 126.944 23.074C126.78 22.84 126.697 22.541 126.697 22.177C126.697 21.735 126.81 21.358 127.035 21.046C127.261 20.734 127.573 20.4957 127.971 20.331C128.379 20.1663 128.847 20.084 129.375 20.084C129.869 20.084 130.324 20.162 130.74 20.318C131.165 20.4653 131.538 20.6993 131.858 21.02L131.247 21.969C130.944 21.6917 130.632 21.488 130.311 21.358C129.999 21.228 129.661 21.163 129.297 21.163C129.089 21.163 128.89 21.189 128.699 21.241C128.509 21.2843 128.348 21.371 128.218 21.501C128.097 21.6223 128.036 21.7957 128.036 22.021C128.036 22.203 128.088 22.3503 128.192 22.463C128.296 22.5757 128.452 22.671 128.66 22.749C128.868 22.827 129.124 22.9137 129.427 23.009C129.956 23.165 130.407 23.321 130.779 23.477C131.152 23.6243 131.438 23.8193 131.637 24.062C131.845 24.296 131.949 24.621 131.949 25.037C131.949 25.6957 131.702 26.2113 131.208 26.584C130.723 26.948 130.073 27.13 129.258 27.13ZM132.732 25.011C132.732 24.5777 132.853 24.2007 133.096 23.88C133.347 23.5507 133.69 23.2993 134.123 23.126C134.556 22.944 135.059 22.853 135.631 22.853C135.934 22.853 136.242 22.8747 136.554 22.918C136.875 22.9613 137.156 23.0307 137.399 23.126V22.697C137.399 22.2203 137.256 21.8477 136.97 21.579C136.684 21.3103 136.272 21.176 135.735 21.176C135.354 21.176 134.994 21.2453 134.656 21.384C134.318 21.514 133.958 21.7003 133.577 21.943L133.096 20.981C133.547 20.6777 133.997 20.4523 134.448 20.305C134.907 20.1577 135.388 20.084 135.891 20.084C136.801 20.084 137.516 20.3267 138.036 20.812C138.565 21.2887 138.829 21.969 138.829 22.853V25.388C138.829 25.5527 138.855 25.6697 138.907 25.739C138.968 25.8083 139.067 25.8473 139.206 25.856V27C139.076 27.026 138.959 27.0433 138.855 27.052C138.751 27.0607 138.664 27.065 138.595 27.065C138.292 27.065 138.062 26.9913 137.906 26.844C137.75 26.6967 137.659 26.5233 137.633 26.324L137.594 25.934C137.299 26.3153 136.922 26.61 136.463 26.818C136.004 27.026 135.54 27.13 135.072 27.13C134.621 27.13 134.218 27.039 133.863 26.857C133.508 26.6663 133.23 26.4107 133.031 26.09C132.832 25.7693 132.732 25.4097 132.732 25.011ZM137.061 25.427C137.165 25.3143 137.247 25.2017 137.308 25.089C137.369 24.9763 137.399 24.8767 137.399 24.79V24.01C137.156 23.9147 136.901 23.8453 136.632 23.802C136.363 23.75 136.099 23.724 135.839 23.724C135.319 23.724 134.894 23.828 134.565 24.036C134.244 24.244 134.084 24.53 134.084 24.894C134.084 25.0933 134.136 25.284 134.24 25.466C134.353 25.648 134.509 25.7953 134.708 25.908C134.916 26.0207 135.172 26.077 135.475 26.077C135.787 26.077 136.086 26.0163 136.372 25.895C136.658 25.7737 136.888 25.6177 137.061 25.427ZM144.386 21.436C143.831 21.4447 143.337 21.5703 142.904 21.813C142.479 22.0557 142.176 22.398 141.994 22.84V27H140.564V20.201H141.89V21.722C142.124 21.254 142.432 20.8813 142.813 20.604C143.194 20.318 143.597 20.162 144.022 20.136C144.109 20.136 144.178 20.136 144.23 20.136C144.291 20.136 144.343 20.1403 144.386 20.149V21.436Z" fill="#263159"/>
<path d="M16.4335 27.2854C15.2703 25.3229 14.8634 23.0033 15.2893 20.7621C15.7151 18.5209 16.9444 16.5122 18.7463 15.1131C20.5482 13.714 22.7988 13.0207 25.0757 13.1634C27.3525 13.3061 29.499 14.2749 31.1121 15.888C32.7252 17.5012 33.6941 19.6476 33.8368 21.9245C33.9795 24.2013 33.2862 26.452 31.8871 28.2539C30.488 30.0558 28.4793 31.2851 26.238 31.7109C23.9968 32.1367 21.6772 31.7299 19.7147 30.5667V30.5667L16.4726 31.4846C16.3397 31.5235 16.1989 31.5259 16.0648 31.4916C15.9307 31.4573 15.8083 31.3876 15.7105 31.2897C15.6126 31.1918 15.5429 31.0694 15.5086 30.9354C15.4743 30.8013 15.4767 30.6604 15.5155 30.5276L16.4335 27.2854Z" stroke="#263159" stroke-linecap="round" stroke-linejoin="round"/>
<path d="M26.8535 27.9689C25.8255 27.9715 24.8072 27.7709 23.857 27.3787C22.9068 26.9865 22.0434 26.4104 21.3166 25.6835C20.5897 24.9567 20.0136 24.0933 19.6214 23.1431C19.2292 22.1929 19.0286 21.1746 19.0312 20.1466C19.0338 19.4231 19.323 18.7301 19.8355 18.2194C20.3481 17.7088 21.0421 17.422 21.7656 17.422V17.422C21.885 17.4211 22.0024 17.4523 22.1055 17.5125C22.2086 17.5726 22.2936 17.6594 22.3515 17.7638L23.4941 19.756C23.5621 19.8771 23.5969 20.014 23.5952 20.1528C23.5935 20.2917 23.5553 20.4276 23.4843 20.547L22.5664 22.0802C23.0366 23.1262 23.8739 23.9635 24.9199 24.4337L26.4531 23.5158C26.5725 23.4449 26.7084 23.4066 26.8473 23.4049C26.9861 23.4032 27.123 23.4381 27.2441 23.506L29.2363 24.6486C29.3407 24.7065 29.4275 24.7915 29.4876 24.8946C29.5478 24.9977 29.579 25.1151 29.5781 25.2345C29.5755 25.9572 29.288 26.6498 28.7778 27.1617C28.2677 27.6737 27.5762 27.9638 26.8535 27.9689V27.9689Z" stroke="#263159" stroke-linecap="round" stroke-linejoin="round"/>
</svg>
