<svg width="162" height="46" viewBox="0 0 162 46" fill="none" xmlns="http://www.w3.org/2000/svg">
<path d="M13.6445 34.0085C13.6445 33.5085 13.7445 33.0552 13.9445 32.6485C14.1511 32.2352 14.4311 31.9085 14.7845 31.6685C15.1378 31.4219 15.5445 31.2985 16.0045 31.2985C16.4045 31.2985 16.7645 31.4019 17.0845 31.6085C17.4111 31.8152 17.6645 32.0719 17.8445 32.3785V29.3185H18.9445V35.3785C18.9445 35.5052 18.9678 35.5952 19.0145 35.6485C19.0611 35.7019 19.1378 35.7319 19.2445 35.7385V36.6185C19.0378 36.6519 18.8778 36.6685 18.7645 36.6685C18.5578 36.6685 18.3811 36.6085 18.2345 36.4885C18.0945 36.3685 18.0211 36.2252 18.0145 36.0585L18.0045 35.6685C17.8045 36.0019 17.5345 36.2619 17.1945 36.4485C16.8545 36.6285 16.5011 36.7185 16.1345 36.7185C15.7745 36.7185 15.4411 36.6485 15.1345 36.5085C14.8345 36.3685 14.5711 36.1719 14.3445 35.9185C14.1245 35.6652 13.9511 35.3752 13.8245 35.0485C13.7045 34.7219 13.6445 34.3752 13.6445 34.0085ZM17.8445 34.7385V33.3685C17.7711 33.1552 17.6511 32.9652 17.4845 32.7985C17.3245 32.6252 17.1411 32.4885 16.9345 32.3885C16.7345 32.2885 16.5345 32.2385 16.3345 32.2385C16.1011 32.2385 15.8878 32.2885 15.6945 32.3885C15.5078 32.4885 15.3445 32.6219 15.2045 32.7885C15.0711 32.9552 14.9678 33.1452 14.8945 33.3585C14.8211 33.5719 14.7845 33.7952 14.7845 34.0285C14.7845 34.2685 14.8245 34.4952 14.9045 34.7085C14.9845 34.9152 15.0978 35.1019 15.2445 35.2685C15.3978 35.4285 15.5711 35.5552 15.7645 35.6485C15.9645 35.7352 16.1811 35.7785 16.4145 35.7785C16.5611 35.7785 16.7078 35.7519 16.8545 35.6985C17.0078 35.6452 17.1511 35.5719 17.2845 35.4785C17.4245 35.3852 17.5411 35.2752 17.6345 35.1485C17.7345 35.0219 17.8045 34.8852 17.8445 34.7385ZM19.9616 35.0885C19.9616 34.7552 20.055 34.4652 20.2416 34.2185C20.435 33.9652 20.6983 33.7719 21.0316 33.6385C21.365 33.4985 21.7516 33.4285 22.1916 33.4285C22.425 33.4285 22.6616 33.4452 22.9016 33.4785C23.1483 33.5119 23.365 33.5652 23.5516 33.6385V33.3085C23.5516 32.9419 23.4416 32.6552 23.2216 32.4485C23.0016 32.2419 22.685 32.1385 22.2716 32.1385C21.9783 32.1385 21.7016 32.1919 21.4416 32.2985C21.1816 32.3985 20.905 32.5419 20.6116 32.7285L20.2416 31.9885C20.5883 31.7552 20.935 31.5819 21.2816 31.4685C21.635 31.3552 22.005 31.2985 22.3916 31.2985C23.0916 31.2985 23.6416 31.4852 24.0416 31.8585C24.4483 32.2252 24.6516 32.7485 24.6516 33.4285V35.3785C24.6516 35.5052 24.6716 35.5952 24.7116 35.6485C24.7583 35.7019 24.835 35.7319 24.9416 35.7385V36.6185C24.8416 36.6385 24.7516 36.6519 24.6716 36.6585C24.5916 36.6652 24.525 36.6685 24.4716 36.6685C24.2383 36.6685 24.0616 36.6119 23.9416 36.4985C23.8216 36.3852 23.7516 36.2519 23.7316 36.0985L23.7016 35.7985C23.475 36.0919 23.185 36.3185 22.8316 36.4785C22.4783 36.6385 22.1216 36.7185 21.7616 36.7185C21.415 36.7185 21.105 36.6485 20.8316 36.5085C20.5583 36.3619 20.345 36.1652 20.1916 35.9185C20.0383 35.6719 19.9616 35.3952 19.9616 35.0885ZM23.2916 35.4085C23.3716 35.3219 23.435 35.2352 23.4816 35.1485C23.5283 35.0619 23.5516 34.9852 23.5516 34.9185V34.3185C23.365 34.2452 23.1683 34.1919 22.9616 34.1585C22.755 34.1185 22.5516 34.0985 22.3516 34.0985C21.9516 34.0985 21.625 34.1785 21.3716 34.3385C21.125 34.4985 21.0016 34.7185 21.0016 34.9985C21.0016 35.1519 21.0416 35.2985 21.1216 35.4385C21.2083 35.5785 21.3283 35.6919 21.4816 35.7785C21.6416 35.8652 21.8383 35.9085 22.0716 35.9085C22.3116 35.9085 22.5416 35.8619 22.7616 35.7685C22.9816 35.6752 23.1583 35.5552 23.2916 35.4085ZM30.6762 36.6185H29.5762V33.6885C29.5762 33.2019 29.4962 32.8452 29.3362 32.6185C29.1828 32.3919 28.9528 32.2785 28.6462 32.2785C28.4328 32.2785 28.2195 32.3319 28.0062 32.4385C27.7995 32.5452 27.6128 32.6919 27.4462 32.8785C27.2795 33.0585 27.1595 33.2685 27.0862 33.5085V36.6185H25.9862V31.3885H26.9862V32.4385C27.1195 32.2052 27.2928 32.0052 27.5062 31.8385C27.7262 31.6652 27.9728 31.5319 28.2462 31.4385C28.5195 31.3452 28.8095 31.2985 29.1162 31.2985C29.4295 31.2985 29.6862 31.3552 29.8862 31.4685C30.0928 31.5819 30.2528 31.7385 30.3662 31.9385C30.4862 32.1319 30.5662 32.3585 30.6062 32.6185C30.6528 32.8719 30.6762 33.1419 30.6762 33.4285V36.6185ZM31.953 36.6185V31.3885H33.053V36.6185H31.953ZM31.953 30.5285V29.3185H33.053V30.5285H31.953ZM34.3848 29.3185H35.4848V35.1085C35.4848 35.3752 35.5248 35.5452 35.6048 35.6185C35.6848 35.6919 35.7848 35.7285 35.9048 35.7285C36.0382 35.7285 36.1615 35.7152 36.2748 35.6885C36.3948 35.6619 36.4982 35.6285 36.5848 35.5885L36.7448 36.4585C36.5848 36.5252 36.3948 36.5819 36.1748 36.6285C35.9548 36.6752 35.7582 36.6985 35.5848 36.6985C35.2115 36.6985 34.9182 36.5952 34.7048 36.3885C34.4915 36.1752 34.3848 35.8819 34.3848 35.5085V29.3185ZM39.7327 36.7185C39.3193 36.7185 38.9493 36.6485 38.6227 36.5085C38.296 36.3619 38.0127 36.1619 37.7727 35.9085C37.5393 35.6552 37.3593 35.3685 37.2327 35.0485C37.106 34.7219 37.0427 34.3752 37.0427 34.0085C37.0427 33.6419 37.106 33.2952 37.2327 32.9685C37.3593 32.6419 37.5393 32.3552 37.7727 32.1085C38.0127 31.8552 38.296 31.6585 38.6227 31.5185C38.956 31.3719 39.326 31.2985 39.7327 31.2985C40.1393 31.2985 40.506 31.3719 40.8327 31.5185C41.166 31.6585 41.4493 31.8552 41.6827 32.1085C41.9227 32.3552 42.106 32.6419 42.2327 32.9685C42.3593 33.2952 42.4227 33.6419 42.4227 34.0085C42.4227 34.3752 42.3593 34.7219 42.2327 35.0485C42.106 35.3685 41.9227 35.6552 41.6827 35.9085C41.4493 36.1619 41.166 36.3619 40.8327 36.5085C40.506 36.6485 40.1393 36.7185 39.7327 36.7185ZM38.1727 34.0185C38.1727 34.3519 38.2427 34.6519 38.3827 34.9185C38.5227 35.1852 38.7093 35.3952 38.9427 35.5485C39.176 35.7019 39.4393 35.7785 39.7327 35.7785C40.0193 35.7785 40.2793 35.7019 40.5127 35.5485C40.7527 35.3885 40.9427 35.1752 41.0827 34.9085C41.2227 34.6352 41.2927 34.3352 41.2927 34.0085C41.2927 33.6752 41.2227 33.3752 41.0827 33.1085C40.9427 32.8419 40.7527 32.6319 40.5127 32.4785C40.2793 32.3185 40.0193 32.2385 39.7327 32.2385C39.4393 32.2385 39.176 32.3185 38.9427 32.4785C38.7093 32.6385 38.5227 32.8519 38.3827 33.1185C38.2427 33.3785 38.1727 33.6785 38.1727 34.0185ZM43.3483 34.3785V33.3885H46.3383V34.3785H43.3483ZM50.5773 36.7185C50.1573 36.7185 49.7873 36.6185 49.4673 36.4185C49.1473 36.2185 48.8939 35.9585 48.7073 35.6385V38.7485H47.6073V31.3885H48.5773V32.3285C48.7773 32.0152 49.0373 31.7652 49.3573 31.5785C49.6773 31.3919 50.0339 31.2985 50.4273 31.2985C50.7873 31.2985 51.1173 31.3719 51.4173 31.5185C51.7173 31.6585 51.9773 31.8552 52.1973 32.1085C52.4173 32.3619 52.5873 32.6519 52.7073 32.9785C52.8339 33.2985 52.8973 33.6385 52.8973 33.9985C52.8973 34.4985 52.7973 34.9552 52.5973 35.3685C52.4039 35.7819 52.1306 36.1119 51.7773 36.3585C51.4306 36.5985 51.0306 36.7185 50.5773 36.7185ZM50.2173 35.7785C50.4506 35.7785 50.6606 35.7285 50.8473 35.6285C51.0406 35.5285 51.2039 35.3952 51.3373 35.2285C51.4773 35.0619 51.5839 34.8719 51.6573 34.6585C51.7306 34.4452 51.7673 34.2252 51.7673 33.9985C51.7673 33.7585 51.7273 33.5319 51.6473 33.3185C51.5673 33.1052 51.4506 32.9185 51.2973 32.7585C51.1506 32.5985 50.9773 32.4719 50.7773 32.3785C50.5839 32.2852 50.3706 32.2385 50.1373 32.2385C49.9973 32.2385 49.8506 32.2652 49.6973 32.3185C49.5439 32.3719 49.4006 32.4452 49.2673 32.5385C49.1339 32.6319 49.0173 32.7419 48.9173 32.8685C48.8173 32.9952 48.7473 33.1285 48.7073 33.2685V34.6385C48.8006 34.8519 48.9239 35.0452 49.0773 35.2185C49.2306 35.3852 49.4073 35.5219 49.6073 35.6285C49.8073 35.7285 50.0106 35.7785 50.2173 35.7785ZM53.5066 35.0885C53.5066 34.7552 53.5999 34.4652 53.7866 34.2185C53.9799 33.9652 54.2432 33.7719 54.5766 33.6385C54.9099 33.4985 55.2966 33.4285 55.7366 33.4285C55.9699 33.4285 56.2066 33.4452 56.4466 33.4785C56.6932 33.5119 56.9099 33.5652 57.0966 33.6385V33.3085C57.0966 32.9419 56.9866 32.6552 56.7666 32.4485C56.5466 32.2419 56.2299 32.1385 55.8166 32.1385C55.5232 32.1385 55.2466 32.1919 54.9866 32.2985C54.7266 32.3985 54.4499 32.5419 54.1566 32.7285L53.7866 31.9885C54.1332 31.7552 54.4799 31.5819 54.8266 31.4685C55.1799 31.3552 55.5499 31.2985 55.9366 31.2985C56.6366 31.2985 57.1866 31.4852 57.5866 31.8585C57.9932 32.2252 58.1966 32.7485 58.1966 33.4285V35.3785C58.1966 35.5052 58.2166 35.5952 58.2566 35.6485C58.3032 35.7019 58.3799 35.7319 58.4866 35.7385V36.6185C58.3866 36.6385 58.2966 36.6519 58.2166 36.6585C58.1366 36.6652 58.0699 36.6685 58.0166 36.6685C57.7832 36.6685 57.6066 36.6119 57.4866 36.4985C57.3666 36.3852 57.2966 36.2519 57.2766 36.0985L57.2466 35.7985C57.0199 36.0919 56.7299 36.3185 56.3766 36.4785C56.0232 36.6385 55.6666 36.7185 55.3066 36.7185C54.9599 36.7185 54.6499 36.6485 54.3766 36.5085C54.1032 36.3619 53.8899 36.1652 53.7366 35.9185C53.5832 35.6719 53.5066 35.3952 53.5066 35.0885ZM56.8366 35.4085C56.9166 35.3219 56.9799 35.2352 57.0266 35.1485C57.0732 35.0619 57.0966 34.9852 57.0966 34.9185V34.3185C56.9099 34.2452 56.7132 34.1919 56.5066 34.1585C56.2999 34.1185 56.0966 34.0985 55.8966 34.0985C55.4966 34.0985 55.1699 34.1785 54.9166 34.3385C54.6699 34.4985 54.5466 34.7185 54.5466 34.9985C54.5466 35.1519 54.5866 35.2985 54.6666 35.4385C54.7532 35.5785 54.8732 35.6919 55.0266 35.7785C55.1866 35.8652 55.3832 35.9085 55.6166 35.9085C55.8566 35.9085 56.0866 35.8619 56.3066 35.7685C56.5266 35.6752 56.7032 35.5552 56.8366 35.4085ZM59.5411 29.3185H60.6411V35.1085C60.6411 35.3752 60.6811 35.5452 60.7611 35.6185C60.8411 35.6919 60.9411 35.7285 61.0611 35.7285C61.1944 35.7285 61.3178 35.7152 61.4311 35.6885C61.5511 35.6619 61.6544 35.6285 61.7411 35.5885L61.9011 36.4585C61.7411 36.5252 61.5511 36.5819 61.3311 36.6285C61.1111 36.6752 60.9144 36.6985 60.7411 36.6985C60.3678 36.6985 60.0744 36.5952 59.8611 36.3885C59.6478 36.1752 59.5411 35.8819 59.5411 35.5085V29.3185ZM62.1589 35.0885C62.1589 34.7552 62.2522 34.4652 62.4389 34.2185C62.6322 33.9652 62.8956 33.7719 63.2289 33.6385C63.5622 33.4985 63.9489 33.4285 64.3889 33.4285C64.6222 33.4285 64.8589 33.4452 65.0989 33.4785C65.3456 33.5119 65.5622 33.5652 65.7489 33.6385V33.3085C65.7489 32.9419 65.6389 32.6552 65.4189 32.4485C65.1989 32.2419 64.8822 32.1385 64.4689 32.1385C64.1756 32.1385 63.8989 32.1919 63.6389 32.2985C63.3789 32.3985 63.1022 32.5419 62.8089 32.7285L62.4389 31.9885C62.7856 31.7552 63.1322 31.5819 63.4789 31.4685C63.8322 31.3552 64.2022 31.2985 64.5889 31.2985C65.2889 31.2985 65.8389 31.4852 66.2389 31.8585C66.6456 32.2252 66.8489 32.7485 66.8489 33.4285V35.3785C66.8489 35.5052 66.8689 35.5952 66.9089 35.6485C66.9556 35.7019 67.0322 35.7319 67.1389 35.7385V36.6185C67.0389 36.6385 66.9489 36.6519 66.8689 36.6585C66.7889 36.6652 66.7222 36.6685 66.6689 36.6685C66.4356 36.6685 66.2589 36.6119 66.1389 36.4985C66.0189 36.3852 65.9489 36.2519 65.9289 36.0985L65.8989 35.7985C65.6722 36.0919 65.3822 36.3185 65.0289 36.4785C64.6756 36.6385 64.3189 36.7185 63.9589 36.7185C63.6122 36.7185 63.3022 36.6485 63.0289 36.5085C62.7556 36.3619 62.5422 36.1652 62.3889 35.9185C62.2356 35.6719 62.1589 35.3952 62.1589 35.0885ZM65.4889 35.4085C65.5689 35.3219 65.6322 35.2352 65.6789 35.1485C65.7256 35.0619 65.7489 34.9852 65.7489 34.9185V34.3185C65.5622 34.2452 65.3656 34.1919 65.1589 34.1585C64.9522 34.1185 64.7489 34.0985 64.5489 34.0985C64.1489 34.0985 63.8222 34.1785 63.5689 34.3385C63.3222 34.4985 63.1989 34.7185 63.1989 34.9985C63.1989 35.1519 63.2389 35.2985 63.3189 35.4385C63.4056 35.5785 63.5256 35.6919 63.6789 35.7785C63.8389 35.8652 64.0356 35.9085 64.2689 35.9085C64.5089 35.9085 64.7389 35.8619 64.9589 35.7685C65.1789 35.6752 65.3556 35.5552 65.4889 35.4085ZM70.5534 36.7185C70.1468 36.7185 69.7768 36.6485 69.4434 36.5085C69.1168 36.3619 68.8334 36.1619 68.5934 35.9085C68.3534 35.6552 68.1668 35.3652 68.0334 35.0385C67.9068 34.7119 67.8434 34.3652 67.8434 33.9985C67.8434 33.5052 67.9534 33.0552 68.1734 32.6485C68.4001 32.2419 68.7134 31.9152 69.1134 31.6685C69.5201 31.4219 70.0001 31.2985 70.5534 31.2985C71.0868 31.2985 71.5501 31.4185 71.9434 31.6585C72.3434 31.8919 72.6368 32.2052 72.8234 32.5985L71.7534 32.9385C71.6334 32.7185 71.4634 32.5485 71.2434 32.4285C71.0301 32.3019 70.7934 32.2385 70.5334 32.2385C70.2401 32.2385 69.9734 32.3152 69.7334 32.4685C69.5001 32.6152 69.3134 32.8219 69.1734 33.0885C69.0401 33.3485 68.9734 33.6519 68.9734 33.9985C68.9734 34.3319 69.0434 34.6352 69.1834 34.9085C69.3234 35.1752 69.5101 35.3885 69.7434 35.5485C69.9834 35.7019 70.2501 35.7785 70.5434 35.7785C70.7234 35.7785 70.8968 35.7485 71.0634 35.6885C71.2368 35.6219 71.3868 35.5352 71.5134 35.4285C71.6401 35.3152 71.7301 35.1919 71.7834 35.0585L72.8634 35.3785C72.7501 35.6385 72.5801 35.8685 72.3534 36.0685C72.1334 36.2685 71.8701 36.4285 71.5634 36.5485C71.2634 36.6619 70.9268 36.7185 70.5534 36.7185ZM73.7694 36.6185V31.3885H74.8694V36.6185H73.7694ZM73.7694 30.5285V29.3185H74.8694V30.5285H73.7694ZM78.5413 36.7185C78.1279 36.7185 77.7579 36.6485 77.4313 36.5085C77.1046 36.3619 76.8213 36.1619 76.5813 35.9085C76.3479 35.6552 76.1679 35.3685 76.0413 35.0485C75.9146 34.7219 75.8513 34.3752 75.8513 34.0085C75.8513 33.6419 75.9146 33.2952 76.0413 32.9685C76.1679 32.6419 76.3479 32.3552 76.5813 32.1085C76.8213 31.8552 77.1046 31.6585 77.4313 31.5185C77.7646 31.3719 78.1346 31.2985 78.5413 31.2985C78.9479 31.2985 79.3146 31.3719 79.6413 31.5185C79.9746 31.6585 80.2579 31.8552 80.4913 32.1085C80.7313 32.3552 80.9146 32.6419 81.0412 32.9685C81.1679 33.2952 81.2313 33.6419 81.2313 34.0085C81.2313 34.3752 81.1679 34.7219 81.0412 35.0485C80.9146 35.3685 80.7313 35.6552 80.4913 35.9085C80.2579 36.1619 79.9746 36.3619 79.6413 36.5085C79.3146 36.6485 78.9479 36.7185 78.5413 36.7185ZM76.9813 34.0185C76.9813 34.3519 77.0513 34.6519 77.1913 34.9185C77.3313 35.1852 77.5179 35.3952 77.7513 35.5485C77.9846 35.7019 78.2479 35.7785 78.5413 35.7785C78.8279 35.7785 79.0879 35.7019 79.3213 35.5485C79.5613 35.3885 79.7513 35.1752 79.8913 34.9085C80.0313 34.6352 80.1013 34.3352 80.1013 34.0085C80.1013 33.6752 80.0313 33.3752 79.8913 33.1085C79.7513 32.8419 79.5613 32.6319 79.3213 32.4785C79.0879 32.3185 78.8279 32.2385 78.5413 32.2385C78.2479 32.2385 77.9846 32.3185 77.7513 32.4785C77.5179 32.6385 77.3313 32.8519 77.1913 33.1185C77.0513 33.3785 76.9813 33.6785 76.9813 34.0185ZM85.7469 30.5885C86.2402 30.5885 86.7069 30.6752 87.1469 30.8485C87.5935 31.0152 87.9902 31.2652 88.3369 31.5985C88.6835 31.9252 88.9569 32.3252 89.1569 32.7985C89.3569 33.2652 89.4569 33.7985 89.4569 34.3985C89.4569 34.5119 89.4469 34.6652 89.4269 34.8585C89.4135 35.0519 89.3802 35.2585 89.3269 35.4785C89.2735 35.6985 89.1902 35.9085 89.0769 36.1085C88.9702 36.3019 88.8235 36.4619 88.6369 36.5885C88.4502 36.7152 88.2169 36.7785 87.9369 36.7785C87.7035 36.7785 87.5235 36.7352 87.3969 36.6485C87.2702 36.5619 87.1802 36.4552 87.1269 36.3285C87.0802 36.1952 87.0469 36.0585 87.0269 35.9185C86.8335 36.1252 86.5869 36.2952 86.2869 36.4285C85.9935 36.5552 85.6735 36.6185 85.3269 36.6185C84.8402 36.6185 84.4635 36.4885 84.1969 36.2285C83.9369 35.9685 83.8069 35.6385 83.8069 35.2385C83.8069 34.8785 83.8969 34.5952 84.0769 34.3885C84.2635 34.1819 84.5002 34.0352 84.7869 33.9485C85.0802 33.8619 85.3735 33.8185 85.6669 33.8185C85.9469 33.8185 86.1902 33.8452 86.3969 33.8985C86.6035 33.9519 86.7569 33.9985 86.8569 34.0385C86.8569 33.7719 86.8235 33.5352 86.7569 33.3285C86.6902 33.1219 86.5702 32.9619 86.3969 32.8485C86.2302 32.7352 85.9902 32.6785 85.6769 32.6785C85.4102 32.6785 85.1602 32.7185 84.9269 32.7985C84.7002 32.8785 84.4969 32.9885 84.3169 33.1285L84.0969 32.5285C84.3369 32.3685 84.6002 32.2452 84.8869 32.1585C85.1735 32.0719 85.4702 32.0285 85.7769 32.0285C86.1902 32.0285 86.5135 32.0919 86.7469 32.2185C86.9869 32.3385 87.1602 32.5052 87.2669 32.7185C87.3802 32.9252 87.4535 33.1519 87.4869 33.3985C87.5202 33.6385 87.5369 33.8719 87.5369 34.0985V35.1785C87.5369 35.3719 87.5435 35.5519 87.5569 35.7185C87.5769 35.8852 87.6235 36.0185 87.6969 36.1185C87.7702 36.2119 87.8835 36.2585 88.0369 36.2585C88.2302 36.2585 88.3869 36.1919 88.5069 36.0585C88.6269 35.9252 88.7202 35.7585 88.7869 35.5585C88.8535 35.3519 88.9002 35.1419 88.9269 34.9285C88.9535 34.7152 88.9669 34.5319 88.9669 34.3785C88.9669 33.9052 88.8869 33.4685 88.7269 33.0685C88.5669 32.6619 88.3402 32.3085 88.0469 32.0085C87.7602 31.7085 87.4202 31.4752 87.0269 31.3085C86.6335 31.1352 86.1969 31.0485 85.7169 31.0485C85.2569 31.0485 84.8269 31.1319 84.4269 31.2985C84.0335 31.4585 83.6902 31.6852 83.3969 31.9785C83.1102 32.2719 82.8835 32.6185 82.7169 33.0185C82.5569 33.4185 82.4769 33.8519 82.4769 34.3185C82.4769 34.7785 82.5535 35.2085 82.7069 35.6085C82.8602 36.0019 83.0769 36.3485 83.3569 36.6485C83.6369 36.9485 83.9669 37.1852 84.3469 37.3585C84.7335 37.5319 85.1602 37.6185 85.6269 37.6185C85.9335 37.6185 86.2069 37.5819 86.4469 37.5085C86.6869 37.4352 86.9302 37.3452 87.1769 37.2385L87.3369 37.6785C87.0635 37.8119 86.7802 37.9119 86.4869 37.9785C86.1935 38.0452 85.9035 38.0785 85.6169 38.0785C85.1169 38.0785 84.6469 37.9852 84.2069 37.7985C83.7735 37.6185 83.3902 37.3619 83.0569 37.0285C82.7235 36.6952 82.4602 36.2985 82.2669 35.8385C82.0802 35.3785 81.9869 34.8719 81.9869 34.3185C81.9869 33.7319 82.0869 33.2085 82.2869 32.7485C82.4935 32.2885 82.7735 31.8985 83.1269 31.5785C83.4802 31.2585 83.8802 31.0152 84.3269 30.8485C84.7802 30.6752 85.2535 30.5885 85.7469 30.5885ZM86.2869 35.8085C86.4335 35.7352 86.5469 35.6552 86.6269 35.5685C86.7069 35.4752 86.7635 35.3785 86.7969 35.2785C86.8302 35.1719 86.8469 35.0652 86.8469 34.9585V34.5785C86.7535 34.5585 86.6035 34.5185 86.3969 34.4585C86.1902 34.3985 85.9469 34.3685 85.6669 34.3685C85.4535 34.3685 85.2569 34.3952 85.0769 34.4485C84.8969 34.5019 84.7535 34.5919 84.6469 34.7185C84.5402 34.8385 84.4869 35.0019 84.4869 35.2085C84.4869 35.3619 84.5235 35.5019 84.5969 35.6285C84.6702 35.7485 84.7735 35.8452 84.9069 35.9185C85.0402 35.9852 85.2002 36.0185 85.3869 36.0185C85.5335 36.0185 85.6869 35.9985 85.8469 35.9585C86.0135 35.9185 86.1602 35.8685 86.2869 35.8085ZM95.3246 36.6185H94.2246V33.6885C94.2246 33.2152 94.1379 32.8619 93.9646 32.6285C93.7913 32.3952 93.5479 32.2785 93.2346 32.2785C93.0413 32.2785 92.8413 32.3319 92.6346 32.4385C92.4279 32.5452 92.2446 32.6919 92.0846 32.8785C91.9246 33.0585 91.8079 33.2685 91.7346 33.5085V36.6185H90.6346V29.3185H91.7346V32.4385C91.9346 32.0852 92.2079 31.8085 92.5546 31.6085C92.9013 31.4019 93.2746 31.2985 93.6746 31.2985C94.0013 31.2985 94.2713 31.3552 94.4846 31.4685C94.6979 31.5819 94.8646 31.7385 94.9846 31.9385C95.1113 32.1319 95.1979 32.3585 95.2446 32.6185C95.2979 32.8719 95.3246 33.1419 95.3246 33.4285V36.6185ZM98.9514 36.7185C98.5381 36.7185 98.1681 36.6485 97.8414 36.5085C97.5147 36.3619 97.2314 36.1619 96.9914 35.9085C96.7581 35.6552 96.5781 35.3685 96.4514 35.0485C96.3247 34.7219 96.2614 34.3752 96.2614 34.0085C96.2614 33.6419 96.3247 33.2952 96.4514 32.9685C96.5781 32.6419 96.7581 32.3552 96.9914 32.1085C97.2314 31.8552 97.5147 31.6585 97.8414 31.5185C98.1747 31.3719 98.5447 31.2985 98.9514 31.2985C99.3581 31.2985 99.7247 31.3719 100.051 31.5185C100.385 31.6585 100.668 31.8552 100.901 32.1085C101.141 32.3552 101.325 32.6419 101.451 32.9685C101.578 33.2952 101.641 33.6419 101.641 34.0085C101.641 34.3752 101.578 34.7219 101.451 35.0485C101.325 35.3685 101.141 35.6552 100.901 35.9085C100.668 36.1619 100.385 36.3619 100.051 36.5085C99.7247 36.6485 99.3581 36.7185 98.9514 36.7185ZM97.3914 34.0185C97.3914 34.3519 97.4614 34.6519 97.6014 34.9185C97.7414 35.1852 97.9281 35.3952 98.1614 35.5485C98.3947 35.7019 98.6581 35.7785 98.9514 35.7785C99.2381 35.7785 99.4981 35.7019 99.7314 35.5485C99.9714 35.3885 100.161 35.1752 100.301 34.9085C100.441 34.6352 100.511 34.3352 100.511 34.0085C100.511 33.6752 100.441 33.3752 100.301 33.1085C100.161 32.8419 99.9714 32.6319 99.7314 32.4785C99.4981 32.3185 99.2381 32.2385 98.9514 32.2385C98.6581 32.2385 98.3947 32.3185 98.1614 32.4785C97.9281 32.6385 97.7414 32.8519 97.6014 33.1185C97.4614 33.3785 97.3914 33.6785 97.3914 34.0185ZM105.449 36.3485C105.356 36.3952 105.239 36.4452 105.099 36.4985C104.959 36.5519 104.799 36.5985 104.619 36.6385C104.446 36.6785 104.266 36.6985 104.079 36.6985C103.852 36.6985 103.642 36.6585 103.449 36.5785C103.256 36.4985 103.099 36.3719 102.979 36.1985C102.866 36.0185 102.809 35.7885 102.809 35.5085V32.2385H102.119V31.3885H102.809V29.6685H103.909V31.3885H105.049V32.2385H103.909V35.1585C103.922 35.3385 103.979 35.4719 104.079 35.5585C104.186 35.6452 104.316 35.6885 104.469 35.6885C104.622 35.6885 104.769 35.6619 104.909 35.6085C105.049 35.5552 105.152 35.5119 105.219 35.4785L105.449 36.3485ZM114.211 36.6185H113.111V33.6885C113.111 33.2019 113.031 32.8452 112.871 32.6185C112.711 32.3919 112.477 32.2785 112.171 32.2785C111.864 32.2785 111.577 32.3952 111.311 32.6285C111.051 32.8552 110.867 33.1519 110.761 33.5185V36.6185H109.661V33.6885C109.661 33.2019 109.581 32.8452 109.421 32.6185C109.261 32.3919 109.031 32.2785 108.731 32.2785C108.424 32.2785 108.137 32.3919 107.871 32.6185C107.611 32.8452 107.424 33.1419 107.311 33.5085V36.6185H106.211V31.3885H107.211V32.4385C107.417 32.0719 107.687 31.7919 108.021 31.5985C108.361 31.3985 108.747 31.2985 109.181 31.2985C109.614 31.2985 109.954 31.4119 110.201 31.6385C110.454 31.8652 110.611 32.1485 110.671 32.4885C110.897 32.1019 111.174 31.8085 111.501 31.6085C111.834 31.4019 112.214 31.2985 112.641 31.2985C112.947 31.2985 113.204 31.3552 113.411 31.4685C113.617 31.5819 113.777 31.7385 113.891 31.9385C114.004 32.1319 114.084 32.3585 114.131 32.6185C114.184 32.8719 114.211 33.1419 114.211 33.4285V36.6185ZM115.098 35.0885C115.098 34.7552 115.192 34.4652 115.378 34.2185C115.572 33.9652 115.835 33.7719 116.168 33.6385C116.502 33.4985 116.888 33.4285 117.328 33.4285C117.562 33.4285 117.798 33.4452 118.038 33.4785C118.285 33.5119 118.502 33.5652 118.688 33.6385V33.3085C118.688 32.9419 118.578 32.6552 118.358 32.4485C118.138 32.2419 117.822 32.1385 117.408 32.1385C117.115 32.1385 116.838 32.1919 116.578 32.2985C116.318 32.3985 116.042 32.5419 115.748 32.7285L115.378 31.9885C115.725 31.7552 116.072 31.5819 116.418 31.4685C116.772 31.3552 117.142 31.2985 117.528 31.2985C118.228 31.2985 118.778 31.4852 119.178 31.8585C119.585 32.2252 119.788 32.7485 119.788 33.4285V35.3785C119.788 35.5052 119.808 35.5952 119.848 35.6485C119.895 35.7019 119.972 35.7319 120.078 35.7385V36.6185C119.978 36.6385 119.888 36.6519 119.808 36.6585C119.728 36.6652 119.662 36.6685 119.608 36.6685C119.375 36.6685 119.198 36.6119 119.078 36.4985C118.958 36.3852 118.888 36.2519 118.868 36.0985L118.838 35.7985C118.612 36.0919 118.322 36.3185 117.968 36.4785C117.615 36.6385 117.258 36.7185 116.898 36.7185C116.552 36.7185 116.242 36.6485 115.968 36.5085C115.695 36.3619 115.482 36.1652 115.328 35.9185C115.175 35.6719 115.098 35.3952 115.098 35.0885ZM118.428 35.4085C118.508 35.3219 118.572 35.2352 118.618 35.1485C118.665 35.0619 118.688 34.9852 118.688 34.9185V34.3185C118.502 34.2452 118.305 34.1919 118.098 34.1585C117.892 34.1185 117.688 34.0985 117.488 34.0985C117.088 34.0985 116.762 34.1785 116.508 34.3385C116.262 34.4985 116.138 34.7185 116.138 34.9985C116.138 35.1519 116.178 35.2985 116.258 35.4385C116.345 35.5785 116.465 35.6919 116.618 35.7785C116.778 35.8652 116.975 35.9085 117.208 35.9085C117.448 35.9085 117.678 35.8619 117.898 35.7685C118.118 35.6752 118.295 35.5552 118.428 35.4085ZM121.123 36.6185V31.3885H122.223V36.6185H121.123ZM121.123 30.5285V29.3185H122.223V30.5285H121.123ZM123.555 29.3185H124.655V35.1085C124.655 35.3752 124.695 35.5452 124.775 35.6185C124.855 35.6919 124.955 35.7285 125.075 35.7285C125.208 35.7285 125.331 35.7152 125.445 35.6885C125.565 35.6619 125.668 35.6285 125.755 35.5885L125.915 36.4585C125.755 36.5252 125.565 36.5819 125.345 36.6285C125.125 36.6752 124.928 36.6985 124.755 36.6985C124.381 36.6985 124.088 36.5952 123.875 36.3885C123.661 36.1752 123.555 35.8819 123.555 35.5085V29.3185ZM126.503 36.6185V35.3385H127.413V36.6185H126.503ZM130.895 36.7185C130.489 36.7185 130.119 36.6485 129.785 36.5085C129.459 36.3619 129.175 36.1619 128.935 35.9085C128.695 35.6552 128.509 35.3652 128.375 35.0385C128.249 34.7119 128.185 34.3652 128.185 33.9985C128.185 33.5052 128.295 33.0552 128.515 32.6485C128.742 32.2419 129.055 31.9152 129.455 31.6685C129.862 31.4219 130.342 31.2985 130.895 31.2985C131.429 31.2985 131.892 31.4185 132.285 31.6585C132.685 31.8919 132.979 32.2052 133.165 32.5985L132.095 32.9385C131.975 32.7185 131.805 32.5485 131.585 32.4285C131.372 32.3019 131.135 32.2385 130.875 32.2385C130.582 32.2385 130.315 32.3152 130.075 32.4685C129.842 32.6152 129.655 32.8219 129.515 33.0885C129.382 33.3485 129.315 33.6519 129.315 33.9985C129.315 34.3319 129.385 34.6352 129.525 34.9085C129.665 35.1752 129.852 35.3885 130.085 35.5485C130.325 35.7019 130.592 35.7785 130.885 35.7785C131.065 35.7785 131.239 35.7485 131.405 35.6885C131.579 35.6219 131.729 35.5352 131.855 35.4285C131.982 35.3152 132.072 35.1919 132.125 35.0585L133.205 35.3785C133.092 35.6385 132.922 35.8685 132.695 36.0685C132.475 36.2685 132.212 36.4285 131.905 36.5485C131.605 36.6619 131.269 36.7185 130.895 36.7185ZM136.412 36.7185C135.999 36.7185 135.629 36.6485 135.302 36.5085C134.976 36.3619 134.692 36.1619 134.452 35.9085C134.219 35.6552 134.039 35.3685 133.912 35.0485C133.786 34.7219 133.722 34.3752 133.722 34.0085C133.722 33.6419 133.786 33.2952 133.912 32.9685C134.039 32.6419 134.219 32.3552 134.452 32.1085C134.692 31.8552 134.976 31.6585 135.302 31.5185C135.636 31.3719 136.006 31.2985 136.412 31.2985C136.819 31.2985 137.186 31.3719 137.512 31.5185C137.846 31.6585 138.129 31.8552 138.362 32.1085C138.602 32.3552 138.786 32.6419 138.912 32.9685C139.039 33.2952 139.102 33.6419 139.102 34.0085C139.102 34.3752 139.039 34.7219 138.912 35.0485C138.786 35.3685 138.602 35.6552 138.362 35.9085C138.129 36.1619 137.846 36.3619 137.512 36.5085C137.186 36.6485 136.819 36.7185 136.412 36.7185ZM134.852 34.0185C134.852 34.3519 134.922 34.6519 135.062 34.9185C135.202 35.1852 135.389 35.3952 135.622 35.5485C135.856 35.7019 136.119 35.7785 136.412 35.7785C136.699 35.7785 136.959 35.7019 137.192 35.5485C137.432 35.3885 137.622 35.1752 137.762 34.9085C137.902 34.6352 137.972 34.3352 137.972 34.0085C137.972 33.6752 137.902 33.3752 137.762 33.1085C137.622 32.8419 137.432 32.6319 137.192 32.4785C136.959 32.3185 136.699 32.2385 136.412 32.2385C136.119 32.2385 135.856 32.3185 135.622 32.4785C135.389 32.6385 135.202 32.8519 135.062 33.1185C134.922 33.3785 134.852 33.6785 134.852 34.0185ZM148.078 36.6185H146.978V33.6885C146.978 33.2019 146.898 32.8452 146.738 32.6185C146.578 32.3919 146.345 32.2785 146.038 32.2785C145.731 32.2785 145.445 32.3952 145.178 32.6285C144.918 32.8552 144.735 33.1519 144.628 33.5185V36.6185H143.528V33.6885C143.528 33.2019 143.448 32.8452 143.288 32.6185C143.128 32.3919 142.898 32.2785 142.598 32.2785C142.291 32.2785 142.005 32.3919 141.738 32.6185C141.478 32.8452 141.291 33.1419 141.178 33.5085V36.6185H140.078V31.3885H141.078V32.4385C141.285 32.0719 141.555 31.7919 141.888 31.5985C142.228 31.3985 142.615 31.2985 143.048 31.2985C143.481 31.2985 143.821 31.4119 144.068 31.6385C144.321 31.8652 144.478 32.1485 144.538 32.4885C144.765 32.1019 145.041 31.8085 145.368 31.6085C145.701 31.4019 146.081 31.2985 146.508 31.2985C146.815 31.2985 147.071 31.3552 147.278 31.4685C147.485 31.5819 147.645 31.7385 147.758 31.9385C147.871 32.1319 147.951 32.3585 147.998 32.6185C148.051 32.8719 148.078 33.1419 148.078 33.4285V36.6185Z" fill="#263159"/>
<path d="M78.2469 19.6285V20.6185H73.3769V13.5185H78.1569V14.5085H74.4969V16.5285H77.6669V17.4585H74.4969V19.6285H78.2469ZM79.2123 18.3785V17.3885H82.2023V18.3785H79.2123ZM91.4713 20.6185H90.3713V17.6885C90.3713 17.2019 90.2913 16.8452 90.1313 16.6185C89.9713 16.3919 89.7379 16.2785 89.4313 16.2785C89.1246 16.2785 88.8379 16.3952 88.5713 16.6285C88.3113 16.8552 88.1279 17.1519 88.0213 17.5185V20.6185H86.9213V17.6885C86.9213 17.2019 86.8413 16.8452 86.6813 16.6185C86.5213 16.3919 86.2913 16.2785 85.9913 16.2785C85.6846 16.2785 85.3979 16.3919 85.1313 16.6185C84.8713 16.8452 84.6846 17.1419 84.5713 17.5085V20.6185H83.4713V15.3885H84.4713V16.4385C84.6779 16.0719 84.9479 15.7919 85.2813 15.5985C85.6213 15.3985 86.0079 15.2985 86.4413 15.2985C86.8746 15.2985 87.2146 15.4119 87.4613 15.6385C87.7146 15.8652 87.8713 16.1485 87.9313 16.4885C88.1579 16.1019 88.4346 15.8085 88.7613 15.6085C89.0946 15.4019 89.4746 15.2985 89.9013 15.2985C90.2079 15.2985 90.4646 15.3552 90.6713 15.4685C90.8779 15.5819 91.0379 15.7385 91.1513 15.9385C91.2646 16.1319 91.3446 16.3585 91.3913 16.6185C91.4446 16.8719 91.4713 17.1419 91.4713 17.4285V20.6185ZM92.3589 19.0885C92.3589 18.7552 92.4522 18.4652 92.6389 18.2185C92.8322 17.9652 93.0955 17.7719 93.4289 17.6385C93.7622 17.4985 94.1489 17.4285 94.5889 17.4285C94.8222 17.4285 95.0589 17.4452 95.2989 17.4785C95.5455 17.5119 95.7622 17.5652 95.9489 17.6385V17.3085C95.9489 16.9419 95.8389 16.6552 95.6189 16.4485C95.3989 16.2419 95.0822 16.1385 94.6689 16.1385C94.3755 16.1385 94.0989 16.1919 93.8389 16.2985C93.5789 16.3985 93.3022 16.5419 93.0089 16.7285L92.6389 15.9885C92.9855 15.7552 93.3322 15.5819 93.6789 15.4685C94.0322 15.3552 94.4022 15.2985 94.7889 15.2985C95.4889 15.2985 96.0389 15.4852 96.4389 15.8585C96.8455 16.2252 97.0489 16.7485 97.0489 17.4285V19.3785C97.0489 19.5052 97.0689 19.5952 97.1089 19.6485C97.1555 19.7019 97.2322 19.7319 97.3389 19.7385V20.6185C97.2389 20.6385 97.1489 20.6519 97.0689 20.6585C96.9889 20.6652 96.9222 20.6685 96.8689 20.6685C96.6355 20.6685 96.4589 20.6119 96.3389 20.4985C96.2189 20.3852 96.1489 20.2519 96.1289 20.0985L96.0989 19.7985C95.8722 20.0919 95.5822 20.3185 95.2289 20.4785C94.8755 20.6385 94.5189 20.7185 94.1589 20.7185C93.8122 20.7185 93.5022 20.6485 93.2289 20.5085C92.9555 20.3619 92.7422 20.1652 92.5889 19.9185C92.4355 19.6719 92.3589 19.3952 92.3589 19.0885ZM95.6889 19.4085C95.7689 19.3219 95.8322 19.2352 95.8789 19.1485C95.9255 19.0619 95.9489 18.9852 95.9489 18.9185V18.3185C95.7622 18.2452 95.5655 18.1919 95.3589 18.1585C95.1522 18.1185 94.9489 18.0985 94.7489 18.0985C94.3489 18.0985 94.0222 18.1785 93.7689 18.3385C93.5222 18.4985 93.3989 18.7185 93.3989 18.9985C93.3989 19.1519 93.4389 19.2985 93.5189 19.4385C93.6055 19.5785 93.7255 19.6919 93.8789 19.7785C94.0389 19.8652 94.2355 19.9085 94.4689 19.9085C94.7089 19.9085 94.9389 19.8619 95.1589 19.7685C95.3789 19.6752 95.5555 19.5552 95.6889 19.4085ZM98.3834 20.6185V15.3885H99.4834V20.6185H98.3834ZM98.3834 14.5285V13.3185H99.4834V14.5285H98.3834ZM100.815 13.3185H101.915V19.1085C101.915 19.3752 101.955 19.5452 102.035 19.6185C102.115 19.6919 102.215 19.7285 102.335 19.7285C102.469 19.7285 102.592 19.7152 102.705 19.6885C102.825 19.6619 102.929 19.6285 103.015 19.5885L103.175 20.4585C103.015 20.5252 102.825 20.5819 102.605 20.6285C102.385 20.6752 102.189 20.6985 102.015 20.6985C101.642 20.6985 101.349 20.5952 101.135 20.3885C100.922 20.1752 100.815 19.8819 100.815 19.5085V13.3185Z" fill="#263159"/>
<path d="M67.6326 11.9078L58.2084 14.7011C58.1282 14.7242 58.0567 14.7727 58.0036 14.8401C57.9505 14.9075 57.9185 14.9905 57.9119 15.0778C57.9052 15.165 57.9243 15.2523 57.9665 15.3277C58.0087 15.4031 58.072 15.463 58.1477 15.4992L62.4756 17.6541C62.5603 17.6954 62.6284 17.7671 62.6677 17.8563L64.7153 22.4108C64.7497 22.4905 64.8067 22.557 64.8783 22.6014C64.95 22.6459 65.0329 22.6659 65.1158 22.659C65.1987 22.652 65.2776 22.6183 65.3416 22.5624C65.4057 22.5066 65.4518 22.4313 65.4737 22.3469L68.1281 12.4292C68.1482 12.3568 68.1494 12.2801 68.1317 12.207C68.1139 12.134 68.0778 12.0673 68.0271 12.014C67.9765 11.9607 67.9131 11.9227 67.8437 11.904C67.7743 11.8853 67.7014 11.8866 67.6326 11.9078V11.9078Z" stroke="#263159" stroke-linecap="round" stroke-linejoin="round"/>
<path d="M62.607 17.7179L64.8923 15.313" stroke="#263159" stroke-linecap="round" stroke-linejoin="round"/>
<rect x="0.5" y="1.11853" width="160.964" height="43.6185" rx="5.5" stroke="#263159"/>
</svg>
