<svg width="39" height="38" viewBox="0 0 39 38" fill="none" xmlns="http://www.w3.org/2000/svg">
<ellipse cx="19.6918" cy="18.7449" rx="18.8995" ry="18.7449" fill="#FFFBEB"/>
<path d="M19.0946 21.4352H14.6379L13.7274 24.2285C13.7172 24.2794 13.6882 24.3247 13.6461 24.3555C13.604 24.3863 13.5518 24.4003 13.4997 24.3949H11.2474C11.1156 24.3949 11.0797 24.3236 11.1156 24.181L14.9733 13.1623C15.0093 13.0435 15.0452 12.9127 15.0931 12.7701C15.1414 12.5154 15.1654 12.2567 15.165 11.9975C15.1614 11.9677 15.1693 11.9377 15.1871 11.9135C15.2049 11.8892 15.2312 11.8725 15.2609 11.8667H18.3638C18.4597 11.8667 18.5076 11.9024 18.5196 11.9618L22.8925 24.2047C22.9284 24.3355 22.8925 24.3949 22.7727 24.3949H20.2687C20.2264 24.399 20.1839 24.3881 20.1489 24.3642C20.1138 24.3402 20.0884 24.3048 20.077 24.2642L19.0946 21.4352ZM15.3327 19.0223H18.3758C18.3039 18.7727 18.2081 18.4755 18.1002 18.1665C17.9924 17.8574 17.8846 17.5008 17.7768 17.1443C17.669 16.7877 17.5491 16.4192 17.4293 16.0507C17.3095 15.6822 17.2017 15.3375 17.1059 14.9928C17.01 14.6481 16.9262 14.351 16.8423 14.0657H16.8183C16.7107 14.5838 16.5747 15.0956 16.411 15.599C16.2313 16.1696 16.0516 16.7639 15.8599 17.3582C15.6922 17.9644 15.5125 18.5231 15.3327 19.0223V19.0223Z" fill="#251749"/>
<path d="M25.5042 13.8993C25.3076 13.9036 25.112 13.869 24.929 13.7976C24.7459 13.7261 24.579 13.6193 24.438 13.4833C24.1635 13.1855 24.0173 12.793 24.0306 12.3897C24.0235 12.1932 24.0583 11.9975 24.1326 11.8152C24.2069 11.6329 24.3191 11.4682 24.4619 11.3319C24.7499 11.0618 25.132 10.9127 25.5282 10.9158C25.9954 10.9158 26.3548 11.0585 26.6184 11.3319C26.8838 11.6201 27.0256 11.9995 27.0138 12.3897C27.0211 12.5906 26.9877 12.7908 26.9157 12.9786C26.8437 13.1665 26.7345 13.3381 26.5945 13.4833C26.4533 13.6259 26.2829 13.7369 26.0948 13.8087C25.9068 13.8804 25.7054 13.9113 25.5042 13.8993V13.8993ZM24.1624 24.2166V15.0642C24.1624 14.9453 24.2103 14.8977 24.3182 14.8977H26.6903C26.7981 14.8977 26.846 14.9572 26.846 15.0642V24.2166C26.846 24.3474 26.7981 24.4068 26.6903 24.4068H24.3421C24.3169 24.4089 24.2916 24.4052 24.268 24.3962C24.2445 24.3872 24.2232 24.373 24.206 24.3548C24.1887 24.3365 24.1758 24.3146 24.1683 24.2906C24.1607 24.2667 24.1587 24.2414 24.1624 24.2166V24.2166Z" fill="#251749"/>
</svg>
