<svg width="39" height="38" viewBox="0 0 39 38" fill="none" xmlns="http://www.w3.org/2000/svg">
<ellipse cx="19.5459" cy="18.744" rx="18.8986" ry="18.744" fill="#FFFBEB"/>
<g clip-path="url(#clip0_3_187)">
<path fill-rule="evenodd" clip-rule="evenodd" d="M10.6233 30.081L8.58405 7.69022H30.9917L28.9503 30.0775L19.7742 32.5678L10.6233 30.081Z" fill="#251749"/>
<path fill-rule="evenodd" clip-rule="evenodd" d="M19.7879 30.6643L27.2027 28.6519L28.9472 9.521H19.7879V30.6643Z" fill="#495579"/>
</g>
<path fill-rule="evenodd" clip-rule="evenodd" d="M12.7795 12.2729H26.8502L26.5793 15.0129L26.3714 15.0128L19.8915 17.831L26.3251 17.8246L26.3251 17.8246L26.3252 17.8246L25.5561 26.2568L25.5561 26.2568L19.8048 27.8214L19.8048 25.5565L19.8048 27.8215L14.0535 26.2568L14.0535 26.2567L13.6445 21.9318H16.4845L16.6725 24.0555L16.6784 24.0505L19.8048 24.9605L19.8048 24.9605L22.8997 24.104L23.2603 20.5742H13.5385L13.2877 17.8377L19.6966 15.0095L13.0169 15.0062L12.7795 12.2729Z" fill="#FFFBEB"/>
<path fill-rule="evenodd" clip-rule="evenodd" d="M19.7917 30.6692L12.379 28.6565L10.635 9.52232H19.7917V30.6692Z" fill="#495579" fill-opacity="0.3"/>
<defs>
<clipPath id="clip0_3_187">
<rect width="25.4128" height="24.8776" fill="white" transform="translate(7.09503 7.69022)"/>
</clipPath>
</defs>
</svg>
