<svg width="39" height="38" viewBox="0 0 39 38" fill="none" xmlns="http://www.w3.org/2000/svg">
<ellipse cx="19.8367" cy="18.7449" rx="18.8995" ry="18.7449" fill="#FFFBEB"/>
<path d="M16.5562 28.166C18.3206 28.166 19.751 26.7474 19.751 24.9974V21.8287H16.5562C14.7918 21.8287 13.3614 23.2473 13.3614 24.9974C13.3614 26.7474 14.7918 28.166 16.5562 28.166Z" fill="#251749"/>
<path d="M13.3614 18.66C13.3614 16.91 14.7918 15.4913 16.5562 15.4913H19.751V21.8287H16.5562C14.7918 21.8287 13.3614 20.41 13.3614 18.66Z" fill="#251749"/>
<path d="M13.3614 12.3226C13.3614 10.5726 14.7918 9.15395 16.5562 9.15395H19.751V15.4913H16.5562C14.7918 15.4913 13.3614 14.0726 13.3614 12.3226Z" fill="#251749"/>
<path d="M19.751 9.15394H22.9458C24.7102 9.15394 26.1406 10.5726 26.1406 12.3226C26.1406 14.0726 24.7102 15.4913 22.9458 15.4913H19.751V9.15394Z" fill="#251749"/>
<path d="M26.1406 18.66C26.1406 20.41 24.7102 21.8287 22.9458 21.8287C21.1813 21.8287 19.751 20.41 19.751 18.66C19.751 16.91 21.1813 15.4913 22.9458 15.4913C24.7102 15.4913 26.1406 16.91 26.1406 18.66Z" fill="#251749"/>
</svg>
