<svg width="39" height="38" viewBox="0 0 39 38" fill="none" xmlns="http://www.w3.org/2000/svg">
<path fill-rule="evenodd" clip-rule="evenodd" d="M0.526611 18.744C0.526611 8.39199 9.07316 0 19.4252 0V0C29.7772 0 38.3238 8.39199 38.3238 18.744V18.744C38.3238 29.0961 29.7772 37.4881 19.4252 37.4881V37.4881C9.07316 37.4881 0.526611 29.0961 0.526611 18.744V18.744Z" fill="#FFFBEB"/>
<path fill-rule="evenodd" clip-rule="evenodd" d="M7.34247 24.766L10.235 23.0299C10.793 24.0112 11.3006 24.8414 12.5182 24.8414C13.6854 24.8414 14.4212 24.3886 14.4212 22.6272V10.6489H17.9732V22.6771C17.9732 26.3259 15.8167 27.9867 12.6705 27.9867C9.82904 27.9867 8.1797 26.5274 7.34247 24.766Z" fill="#251749"/>
<path fill-rule="evenodd" clip-rule="evenodd" d="M19.9025 24.3885L22.7947 22.7277C23.556 23.9609 24.5455 24.8667 26.2961 24.8667C27.7678 24.8667 28.7063 24.1369 28.7063 23.1303C28.7063 21.9224 27.7423 21.4946 26.1184 20.7902L25.2307 20.4125C22.668 19.3306 20.968 17.9718 20.968 15.103C20.968 12.4607 22.9977 10.4475 26.1693 10.4475C28.4274 10.4475 30.0512 11.2277 31.2182 13.266L28.4526 15.0274C27.8437 13.9454 27.1842 13.5177 26.1694 13.5177C25.1291 13.5177 24.4694 14.172 24.4694 15.0274C24.4694 16.0843 25.1291 16.5122 26.6512 17.1665L27.5392 17.544C30.5585 18.8274 32.2584 20.1358 32.2584 23.08C32.2584 26.2509 29.7467 27.987 26.3723 27.987C23.074 27.987 20.9426 26.4269 19.9025 24.3885Z" fill="#251749"/>
</svg>
