<svg width="38" height="38" viewBox="0 0 38 38" fill="none" xmlns="http://www.w3.org/2000/svg">
<ellipse cx="18.9816" cy="18.7449" rx="18.8995" ry="18.7449" fill="#FFFBEB"/>
<path d="M11.0067 24.2928V12.3714C11.0067 12.2903 11.0418 12.244 11.1236 12.244C11.3222 12.244 11.5092 12.244 11.7779 12.2324C12.0467 12.2208 12.3505 12.2208 12.6659 12.2092C12.9814 12.1976 13.3203 12.1976 13.6825 12.186C14.0447 12.1744 14.3953 12.1744 14.7458 12.1744C15.704 12.1744 16.4985 12.2903 17.1529 12.5336C17.7394 12.7311 18.2743 13.0556 18.7186 13.4836C19.0951 13.8581 19.386 14.3085 19.5716 14.8043C19.7485 15.2871 19.8394 15.7967 19.8404 16.3104C19.8404 17.3068 19.6067 18.1293 19.1393 18.7781C18.6697 19.426 18.0141 19.9186 17.258 20.1915C16.4635 20.4812 15.5871 20.5854 14.629 20.5854C14.3485 20.5854 14.1616 20.5854 14.0447 20.5738C13.9279 20.5623 13.7643 20.5623 13.5423 20.5623V24.2812C13.5449 24.3002 13.5436 24.3196 13.5385 24.3382C13.5334 24.3567 13.5246 24.3741 13.5126 24.3892C13.5007 24.4044 13.4857 24.4169 13.4687 24.4262C13.4518 24.4355 13.4331 24.4414 13.4138 24.4434H11.1469C11.0535 24.4434 11.0067 24.397 11.0067 24.2928ZM13.554 14.4799V18.3726C13.7176 18.3842 13.8695 18.3958 14.0097 18.3958H14.629C15.0851 18.3963 15.5385 18.326 15.9727 18.1873C16.3452 18.0786 16.678 17.8654 16.9309 17.5732C17.1762 17.2836 17.2931 16.8897 17.2931 16.3799C17.3041 16.0179 17.2109 15.6603 17.0243 15.3488C16.8295 15.048 16.543 14.8167 16.2064 14.6885C15.7677 14.5181 15.2984 14.4392 14.8276 14.4568C14.5238 14.4568 14.2551 14.4568 14.0331 14.4683C13.8733 14.458 13.713 14.4619 13.554 14.4799V14.4799Z" fill="#251749"/>
<path d="M27.1315 17.6659C26.7787 17.4817 26.4009 17.349 26.0098 17.272C25.5802 17.1756 25.1415 17.1251 24.7011 17.1214C24.4646 17.1133 24.2283 17.1407 24 17.2025C23.8545 17.2325 23.7254 17.3151 23.6378 17.4342C23.5787 17.5282 23.5464 17.6363 23.5443 17.747C23.5497 17.8572 23.5907 17.9628 23.6612 18.0482C23.7719 18.177 23.9068 18.2833 24.0584 18.361C24.3272 18.5001 24.6076 18.6275 24.888 18.7434C25.5193 18.9541 26.1233 19.238 26.6875 19.5891C27.0712 19.8283 27.3885 20.1589 27.6106 20.5507C27.7983 20.9203 27.8907 21.3303 27.8793 21.744C27.8888 22.2916 27.7299 22.829 27.4236 23.2848C27.0977 23.7473 26.6429 24.1056 26.1149 24.3159C25.5424 24.5592 24.8413 24.6867 24 24.6867C23.4666 24.6888 22.9343 24.6383 22.4109 24.5361C21.9988 24.4654 21.598 24.3408 21.219 24.1653C21.1783 24.1451 21.1444 24.1134 21.1216 24.0743C21.0988 24.0352 21.088 23.9903 21.0905 23.9452V21.9293C21.0895 21.9095 21.0932 21.8898 21.1013 21.8717C21.1095 21.8536 21.1218 21.8376 21.1373 21.8251C21.1537 21.8156 21.1728 21.8116 21.1918 21.8136C21.2107 21.8157 21.2285 21.8238 21.2424 21.8367C21.6925 22.0998 22.1814 22.2913 22.6913 22.4043C23.1415 22.5205 23.6049 22.5789 24.0701 22.5781C24.5141 22.5781 24.8296 22.5202 25.0399 22.4159C25.1338 22.373 25.2133 22.3044 25.2691 22.2182C25.325 22.132 25.355 22.0318 25.3554 21.9293C25.3554 21.7671 25.262 21.6165 25.075 21.4659C24.888 21.3153 24.5025 21.1415 23.9299 20.9214C23.3425 20.7162 22.7847 20.4358 22.2707 20.0873C21.9045 19.8285 21.6012 19.4921 21.3826 19.1025C21.1962 18.7366 21.1038 18.3306 21.1139 17.9208C21.1156 17.4264 21.2529 16.9419 21.5112 16.519C21.808 16.0539 22.2341 15.6838 22.7381 15.4531C23.2872 15.1751 23.9766 15.0476 24.8063 15.0476C25.2911 15.0478 25.7754 15.0826 26.2552 15.1519C26.6001 15.1982 26.9378 15.2877 27.26 15.4184C27.3114 15.4364 27.3534 15.4739 27.3769 15.5226C27.3904 15.5678 27.3982 15.6145 27.4003 15.6616V17.5501C27.4004 17.5726 27.3952 17.5948 27.3851 17.615C27.3749 17.6351 27.3601 17.6526 27.3418 17.6659C27.2739 17.6902 27.1995 17.6902 27.1315 17.6659Z" fill="#251749"/>
</svg>
