<svg width="172" height="173" viewBox="0 0 172 173" fill="none" xmlns="http://www.w3.org/2000/svg">
<g filter="url(#filter0_d_49_101)">
<circle cx="86.0009" cy="82.3103" r="35.7965" fill="#001F54"/>
</g>
<path d="M84.8699 87.4479H76.4286L74.7041 92.7821C74.6848 92.8793 74.6299 92.9658 74.5501 93.0246C74.4703 93.0834 74.3715 93.1103 74.2729 93.0999H70.0069C69.7573 93.0999 69.6892 92.9637 69.7573 92.6913L77.064 71.6495C77.1321 71.4225 77.2002 71.1728 77.2909 70.9004C77.3822 70.4139 77.4278 69.9199 77.4271 69.425C77.4203 69.3681 77.4352 69.3108 77.4689 69.2645C77.5025 69.2182 77.5524 69.1863 77.6086 69.1753H83.4857C83.6673 69.1753 83.758 69.2434 83.7807 69.3569L92.0632 92.7367C92.1313 92.9864 92.0632 93.0999 91.8363 93.0999H87.0937C87.0135 93.1076 86.9332 93.0868 86.8668 93.0411C86.8004 92.9955 86.7522 92.9279 86.7307 92.8502L84.8699 87.4479ZM77.7448 82.84H83.5084C83.3723 82.3633 83.1908 81.7958 82.9865 81.2057C82.7823 80.6155 82.5781 79.9345 82.3739 79.2536C82.1696 78.5726 81.9427 77.8689 81.7158 77.1653C81.4889 76.4616 81.2847 75.8033 81.1031 75.1451C80.9216 74.4868 80.7627 73.9193 80.6039 73.3746H80.5585C80.3546 74.3639 80.097 75.3414 79.787 76.3027C79.4466 77.3923 79.1063 78.5272 78.7432 79.6622C78.4255 80.8198 78.0851 81.8866 77.7448 82.84V82.84Z" fill="#FF9A00"/>
<path d="M97.0101 73.0568C96.6376 73.0649 96.2672 72.9989 95.9205 72.8625C95.5738 72.7261 95.2576 72.5221 94.9905 72.2623C94.4706 71.6937 94.1937 70.9442 94.219 70.174C94.2056 69.7988 94.2714 69.4249 94.4122 69.0768C94.5529 68.7287 94.7655 68.4142 95.0359 68.1538C95.5813 67.6382 96.305 67.3535 97.0554 67.3594C97.9404 67.3594 98.6212 67.6318 99.1204 68.1538C99.6231 68.7042 99.8917 69.4289 99.8692 70.174C99.8831 70.5575 99.8199 70.9399 99.6835 71.2986C99.5471 71.6573 99.3402 71.985 99.075 72.2623C98.8076 72.5348 98.4849 72.7467 98.1287 72.8837C97.7725 73.0208 97.391 73.0798 97.0101 73.0568V73.0568ZM94.4686 92.7594V75.2813C94.4686 75.0543 94.5594 74.9635 94.7636 74.9635H99.2565C99.4608 74.9635 99.5515 75.077 99.5515 75.2813V92.7594C99.5515 93.0091 99.4608 93.1226 99.2565 93.1226H94.809C94.7613 93.1265 94.7133 93.1196 94.6687 93.1024C94.624 93.0852 94.5838 93.0581 94.5511 93.0232C94.5184 92.9883 94.494 92.9464 94.4797 92.9007C94.4654 92.8551 94.4616 92.8067 94.4686 92.7594V92.7594Z" fill="#FF9A00"/>
<defs>
<filter id="filter0_d_49_101" x="0.204346" y="0.513763" width="171.593" height="171.593" filterUnits="userSpaceOnUse" color-interpolation-filters="sRGB">
<feFlood flood-opacity="0" result="BackgroundImageFix"/>
<feColorMatrix in="SourceAlpha" type="matrix" values="0 0 0 0 0 0 0 0 0 0 0 0 0 0 0 0 0 0 127 0" result="hardAlpha"/>
<feOffset dy="4"/>
<feGaussianBlur stdDeviation="25"/>
<feComposite in2="hardAlpha" operator="out"/>
<feColorMatrix type="matrix" values="0 0 0 0 0 0 0 0 0 0 0 0 0 0 0 0 0 0 0.5 0"/>
<feBlend mode="normal" in2="BackgroundImageFix" result="effect1_dropShadow_49_101"/>
<feBlend mode="normal" in="SourceGraphic" in2="effect1_dropShadow_49_101" result="shape"/>
</filter>
</defs>
</svg>
