<svg width="29" height="29" viewBox="0 0 29 29" fill="none" xmlns="http://www.w3.org/2000/svg">
<path d="M17.9013 12.8929C17.7059 12.8921 17.5126 12.9321 17.3336 13.0104C17.1546 13.0887 16.9939 13.2035 16.8618 13.3474C16.7298 13.4914 16.6292 13.6613 16.5666 13.8464C16.504 14.0314 16.4808 14.2275 16.4984 14.4221H19.3884C19.4071 14.2202 19.3818 14.0167 19.3142 13.8256C19.2467 13.6344 19.1385 13.4602 18.9972 13.3149C18.8559 13.1695 18.6847 13.0565 18.4955 12.9837C18.3063 12.9109 18.1036 12.8799 17.9013 12.8929Z" fill="#FFFBEB"/>
<path d="M10.508 14.4502H8.78235V17.1719H10.1853C11.5882 17.1719 12.2055 16.7089 12.2055 15.769C12.2055 14.829 11.5602 14.4502 10.508 14.4502V14.4502Z" fill="#FFFBEB"/>
<path d="M11.7285 11.953C11.7285 11.2094 11.2375 10.7605 10.3957 10.7605H8.78235V13.2016H9.97484C11.2234 13.2016 11.7285 12.7527 11.7285 11.953Z" fill="#FFFBEB"/>
<path d="M14.0293 0C11.2546 0 8.54216 0.822805 6.23505 2.36437C3.92794 3.90593 2.12977 6.09701 1.06792 8.66053C0.0060786 11.224 -0.271748 14.0449 0.269576 16.7663C0.8109 19.4877 2.14706 21.9875 4.1091 23.9495C6.07113 25.9116 8.57092 27.2477 11.2923 27.7891C14.0138 28.3304 16.8346 28.0526 19.3981 26.9907C21.9616 25.9289 24.1527 24.1307 25.6943 21.8236C27.2358 19.5165 28.0586 16.804 28.0586 14.0293C28.0586 12.187 27.6958 10.3626 26.9907 8.66053C26.2857 6.95841 25.2523 5.41183 23.9495 4.10909C22.6468 2.80635 21.1002 1.77296 19.3981 1.06792C17.696 0.362879 15.8717 0 14.0293 0ZM10.8026 18.5187H7.01466V9.39964H10.8026C12.444 9.39964 13.5243 10.2554 13.5243 11.6443C13.5436 12.1109 13.3961 12.5692 13.1081 12.9368C12.8202 13.3045 12.4106 13.5575 11.953 13.6505C12.243 13.6572 12.5286 13.7231 12.7923 13.844C13.0561 13.9649 13.2923 14.1384 13.4867 14.3537C13.681 14.5691 13.8294 14.8219 13.9227 15.0966C14.016 15.3713 14.0523 15.6621 14.0293 15.9513C14.0293 17.5787 12.6264 18.5187 10.8026 18.5187ZM15.783 10.1011H19.9918V10.8026H15.783V10.1011ZM21.044 15.5024H16.4143V15.6988C16.3902 15.912 16.412 16.1279 16.4784 16.3319C16.5447 16.5359 16.654 16.7233 16.799 16.8816C16.9439 17.0398 17.121 17.1651 17.3184 17.249C17.5159 17.333 17.729 17.3737 17.9435 17.3683C18.2446 17.4151 18.5525 17.3514 18.8104 17.1889C19.0682 17.0265 19.2586 16.7763 19.3464 16.4844H21.044C20.8928 17.1579 20.4987 17.752 19.9371 18.1532C19.3755 18.5543 18.6857 18.7344 17.9996 18.659C17.5611 18.7033 17.1183 18.6509 16.7022 18.5056C16.2861 18.3604 15.9069 18.1257 15.5913 17.8181C15.2757 17.5105 15.0313 17.1375 14.8754 16.7253C14.7194 16.3131 14.6557 15.8717 14.6887 15.4322V14.815C14.6589 14.3891 14.7216 13.9619 14.8724 13.5625C15.0232 13.1632 15.2586 12.8012 15.5624 12.5013C15.8662 12.2015 16.2313 11.9709 16.6326 11.8254C17.0339 11.6799 17.462 11.6229 17.8874 11.6584C18.3114 11.6312 18.7363 11.6952 19.1335 11.846C19.5307 11.9968 19.8909 12.231 20.19 12.5327C20.4891 12.8345 20.7201 13.1968 20.8674 13.5953C21.0147 13.9938 21.0749 14.4193 21.044 14.843V15.5024Z" fill="#FFFBEB"/>
</svg>
