<svg width="35" height="35" viewBox="0 0 35 35" fill="none" xmlns="http://www.w3.org/2000/svg">
<circle cx="17.5" cy="17.5" r="17.5" fill="white"/>
<path d="M22.4564 16.0038C22.2544 16.0027 22.0544 16.055 21.8694 16.1572C21.6843 16.2593 21.5182 16.4092 21.3817 16.5971C21.2451 16.785 21.1412 17.0069 21.0764 17.2484C21.0117 17.49 20.9877 17.746 21.0059 18H23.9938C24.0131 17.7365 23.987 17.4708 23.9171 17.2213C23.8473 16.9718 23.7355 16.7443 23.5894 16.5546C23.4433 16.3649 23.2663 16.2174 23.0707 16.1223C22.8751 16.0272 22.6655 15.9868 22.4564 16.0038Z" fill="#0A1128"/>
<path d="M13.0164 18H11V21H12.6393C14.2787 21 15 20.4897 15 19.4536C15 18.4175 14.2459 18 13.0164 18Z" fill="#0A1128"/>
<path d="M15 14.4655C15 13.5517 14.3333 13 13.1905 13H11V16H12.619C14.3143 16 15 15.4483 15 14.4655Z" fill="#0A1128"/>
<path d="M17.5 0C14.0388 0 10.6554 1.02636 7.77753 2.94928C4.89967 4.87221 2.65665 7.60533 1.33212 10.803C0.00758247 14.0007 -0.338976 17.5194 0.336265 20.9141C1.01151 24.3087 2.67822 27.4269 5.12564 29.8744C7.57306 32.3218 10.6913 33.9885 14.0859 34.6637C17.4806 35.339 20.9993 34.9924 24.197 33.6679C27.3947 32.3433 30.1278 30.1003 32.0507 27.2225C33.9736 24.3446 35 20.9612 35 17.5C35 15.2019 34.5474 12.9262 33.6679 10.803C32.7884 8.67984 31.4994 6.75065 29.8744 5.12563C28.2493 3.50061 26.3202 2.21157 24.197 1.33211C22.0738 0.452651 19.7981 0 17.5 0ZM13.475 23.1H8.75001V11.725H13.475C15.5225 11.725 16.87 12.7925 16.87 14.525C16.8942 15.107 16.7101 15.6786 16.3509 16.1372C15.9917 16.5959 15.4809 16.9115 14.91 17.0275C15.2718 17.0359 15.6281 17.118 15.957 17.2688C16.286 17.4197 16.5807 17.636 16.8231 17.9047C17.0656 18.1733 17.2507 18.4886 17.367 18.8313C17.4834 19.174 17.5287 19.5367 17.5 19.8975C17.5 21.9275 15.75 23.1 13.475 23.1ZM19.6875 12.6H24.9375V13.475H19.6875V12.6ZM26.25 19.3375H20.475V19.5825C20.4449 19.8484 20.4722 20.1177 20.5549 20.3722C20.6377 20.6267 20.7741 20.8605 20.9548 21.0578C21.1356 21.2552 21.3566 21.4115 21.6028 21.5162C21.8491 21.621 22.115 21.6717 22.3825 21.665C22.7581 21.7234 23.1422 21.6439 23.4638 21.4413C23.7855 21.2386 24.023 20.9265 24.1325 20.5625H26.25C26.0614 21.4025 25.5699 22.1436 24.8693 22.644C24.1687 23.1444 23.3083 23.3691 22.4525 23.275C21.9056 23.3302 21.3531 23.2649 20.8341 23.0837C20.3151 22.9025 19.8421 22.6097 19.4484 22.2261C19.0547 21.8424 18.7499 21.3771 18.5554 20.8629C18.3609 20.3487 18.2814 19.7982 18.3225 19.25V18.48C18.2853 17.9488 18.3635 17.4159 18.5516 16.9177C18.7397 16.4196 19.0334 15.968 19.4124 15.594C19.7914 15.22 20.2468 14.9324 20.7474 14.7509C21.2479 14.5694 21.7819 14.4983 22.3125 14.5425C22.8414 14.5086 23.3714 14.5884 23.8669 14.7765C24.3623 14.9647 24.8117 15.2568 25.1848 15.6332C25.5579 16.0096 25.846 16.4615 26.0297 16.9586C26.2135 17.4557 26.2886 17.9864 26.25 18.515V19.3375Z" fill="#0A1128"/>
</svg>
