<svg width="29" height="29" viewBox="0 0 29 29" fill="none" xmlns="http://www.w3.org/2000/svg">
<path fill-rule="evenodd" clip-rule="evenodd" d="M7.17639 3.11755C9.4835 1.57599 12.1959 0.753189 14.9707 0.753189C16.813 0.753189 18.6373 1.11607 20.3394 1.82111C22.0416 2.52615 23.5881 3.55954 24.8909 4.86228C26.1936 6.16502 27.227 7.7116 27.9321 9.41372C28.6371 11.1158 29 12.9401 29 14.7825C29 17.5572 28.1772 20.2697 26.6356 22.5768C25.094 24.8839 22.903 26.6821 20.3394 27.7439C17.7759 28.8057 14.9551 29.0836 12.2337 28.5422C9.51226 28.0009 7.01248 26.6648 5.05044 24.7027C3.08841 22.7407 1.75224 20.2409 1.21092 17.5195C0.669597 14.7981 0.947424 11.9772 2.00927 9.41372C3.07111 6.85019 4.86929 4.65912 7.17639 3.11755ZM7.95601 19.2719H11.7439C13.5677 19.2719 14.9707 18.3319 14.9707 16.7045C14.9936 16.4153 14.9574 16.1245 14.8641 15.8498C14.7708 15.5751 14.6224 15.3223 14.428 15.1069C14.2337 14.8915 13.9974 14.7181 13.7337 14.5972C13.47 14.4763 13.1844 14.4104 12.8943 14.4037C13.352 14.3107 13.7615 14.0577 14.0495 13.69C14.3374 13.3224 14.485 12.8641 14.4656 12.3975C14.4656 11.0086 13.3853 10.1528 11.7439 10.1528H7.95601V19.2719ZM20.9331 10.8543H16.7243V11.5558H20.9331V10.8543ZM17.3556 16.2556H21.9853V15.5962C22.0163 15.1725 21.956 14.747 21.8087 14.3485C21.6614 13.95 21.4305 13.5877 21.1314 13.2859C20.8323 12.9842 20.472 12.75 20.0748 12.5992C19.6776 12.4483 19.2527 12.3844 18.8287 12.4115C18.4033 12.3761 17.9753 12.4331 17.574 12.5786C17.1727 12.7241 16.8076 12.9547 16.5037 13.2545C16.1999 13.5544 15.9645 13.9164 15.8137 14.3157C15.6629 14.7151 15.6002 15.1423 15.63 15.5681V16.1854C15.5971 16.6249 15.6608 17.0663 15.8167 17.4785C15.9727 17.8907 16.2171 18.2637 16.5327 18.5713C16.8483 18.8789 17.2275 19.1136 17.6435 19.2588C18.0596 19.4041 18.5025 19.4565 18.941 19.4122C19.627 19.4876 20.3168 19.3075 20.8784 18.9063C21.4401 18.5052 21.8342 17.9111 21.9853 17.2376H20.2878C20.2 17.5295 20.0096 17.7797 19.7517 17.9421C19.4939 18.1046 19.186 18.1683 18.8848 18.1215C18.6704 18.1269 18.4572 18.0862 18.2598 18.0022C18.0624 17.9183 17.8852 17.793 17.7403 17.6347C17.5954 17.4765 17.4861 17.2891 17.4197 17.0851C17.3534 16.8811 17.3315 16.6652 17.3556 16.452V16.2556ZM12.6698 12.7061C12.6698 11.9626 12.1788 11.5136 11.3371 11.5136H9.72369V13.9547H10.9162C12.1648 13.9547 12.6698 13.5058 12.6698 12.7061ZM18.2749 13.7636C18.4539 13.6853 18.6473 13.6453 18.8426 13.6461C19.045 13.6331 19.2477 13.6641 19.4369 13.7369C19.6261 13.8098 19.7972 13.9227 19.9385 14.0681C20.0799 14.2134 20.188 14.3876 20.2556 14.5788C20.3231 14.7699 20.3484 14.9735 20.3298 15.1753H17.4397C17.4221 14.9808 17.4454 14.7847 17.508 14.5996C17.5706 14.4145 17.6711 14.2446 17.8032 14.1006C17.9352 13.9567 18.0959 13.8419 18.2749 13.7636ZM9.72369 15.2034H11.4493C12.5015 15.2034 13.1468 15.5822 13.1468 16.5222C13.1468 17.4622 12.5296 17.9251 11.1266 17.9251H9.72369V15.2034Z" fill="#251749"/>
</svg>
