<svg width="172" height="173" viewBox="0 0 172 173" fill="none" xmlns="http://www.w3.org/2000/svg">
<g filter="url(#filter0_d_49_98)">
<circle cx="85.7965" cy="82.6654" r="35.7965" fill="#001F54"/>
</g>
<g clip-path="url(#clip0_49_98)">
<path fill-rule="evenodd" clip-rule="evenodd" d="M68.0591 105.786L63.9587 59.7956H109.015L104.91 105.779L86.4591 110.894L68.0591 105.786Z" fill="#0A1128"/>
<path fill-rule="evenodd" clip-rule="evenodd" d="M86.4866 106.984L101.396 102.851L104.903 63.556H86.4866V106.984Z" fill="#001F54"/>
<path d="M86.4673 69.1966H100.597L100.092 74.8372H86.4673V69.1966Z" fill="white"/>
<path d="M86.4673 86.2536V80.6131H99.5786L99.441 82.1278L98.0307 97.9304L86.4673 101.135V95.2669L92.7582 93.5689L93.413 86.2536H86.4673Z" fill="white"/>
</g>
<path fill-rule="evenodd" clip-rule="evenodd" d="M72.3945 69.2085H100.687L100.142 74.8363L99.7242 74.8361L86.6949 80.6247L99.6312 80.6114L99.6313 80.6114L98.0849 97.9311L98.0849 97.9311L86.5205 101.145V101.145L86.5205 101.145L74.9562 97.9311L74.9562 97.9311L74.1337 89.0478H79.8442L80.2222 93.4097L80.2341 93.3994L86.5205 95.2686L92.7435 93.5094L93.4686 86.2591H73.9207L73.4165 80.6383L86.3031 74.8293L72.8719 74.8225L72.3945 69.2085Z" fill="#3193EE"/>
<mask id="mask0_49_98" style="mask-type:alpha" maskUnits="userSpaceOnUse" x="72" y="69" width="29" height="33">
<path fill-rule="evenodd" clip-rule="evenodd" d="M72.3945 69.2084H100.687L100.142 74.8363L99.7242 74.8361L86.6949 80.6247L99.6312 80.6114L99.6313 80.6114L98.0849 97.9311L98.0849 97.9311L86.5205 101.145V101.145L86.5205 101.145L74.9562 97.9311L74.9562 97.9311L74.1337 89.0477H79.8442L80.2222 93.4097L80.2341 93.3994L86.5205 95.2686L92.7435 93.5094L93.4686 86.2591H73.9207L73.4165 80.6383L86.3031 74.8293L72.8719 74.8225L72.3945 69.2084Z" fill="#3193EE"/>
</mask>
<g mask="url(#mask0_49_98)">
<rect x="69.7051" y="66.5191" width="16.8086" height="37.6514" fill="#2A86DC"/>
</g>
<defs>
<filter id="filter0_d_49_98" x="0" y="0.868927" width="171.593" height="171.593" filterUnits="userSpaceOnUse" color-interpolation-filters="sRGB">
<feFlood flood-opacity="0" result="BackgroundImageFix"/>
<feColorMatrix in="SourceAlpha" type="matrix" values="0 0 0 0 0 0 0 0 0 0 0 0 0 0 0 0 0 0 127 0" result="hardAlpha"/>
<feOffset dy="4"/>
<feGaussianBlur stdDeviation="25"/>
<feComposite in2="hardAlpha" operator="out"/>
<feColorMatrix type="matrix" values="0 0 0 0 0 0 0 0 0 0 0 0 0 0 0 0 0 0 0.5 0"/>
<feBlend mode="normal" in2="BackgroundImageFix" result="effect1_dropShadow_49_98"/>
<feBlend mode="normal" in="SourceGraphic" in2="effect1_dropShadow_49_98" result="shape"/>
</filter>
<clipPath id="clip0_49_98">
<rect width="51.0983" height="51.0983" fill="white" transform="translate(60.9646 59.7956)"/>
</clipPath>
</defs>
</svg>
