<svg width="1322" height="1322" viewBox="0 0 1322 1322" fill="none" xmlns="http://www.w3.org/2000/svg">
<rect width="1322" height="1322" fill="#1E1E1E"/>
<rect width="1322" height="1322" fill="white"/>
<rect width="1322" height="1322" fill="#0A1128"/>
<path d="M405.795 450V385.6H437.495C442.629 385.6 446.862 386.633 450.195 388.7C453.529 390.7 455.995 393.433 457.595 396.9C459.262 400.367 460.095 404.267 460.095 408.6C460.095 413 459.162 416.9 457.295 420.3C455.429 423.7 452.762 426.367 449.295 428.3C445.895 430.167 441.829 431.1 437.095 431.1H421.895V450H405.795ZM421.895 418.7H433.495C436.895 418.7 439.429 417.767 441.095 415.9C442.829 414.033 443.695 411.567 443.695 408.5C443.695 405.167 442.895 402.6 441.295 400.8C439.762 398.933 437.329 398 433.995 398H421.895V418.7ZM466.44 450V402.6H481.74L482.24 407C484.307 405.733 486.873 404.6 489.94 403.6C493.007 402.533 496.073 401.867 499.14 401.6V413.7C497.407 413.9 495.473 414.233 493.34 414.7C491.273 415.1 489.273 415.6 487.34 416.2C485.473 416.8 483.873 417.433 482.54 418.1V450H466.44ZM527.956 451C518.823 451 512.09 448.9 507.756 444.7C503.423 440.433 501.256 434.3 501.256 426.3C501.256 418.367 503.423 412.267 507.756 408C512.156 403.733 518.89 401.6 527.956 401.6C537.09 401.6 543.823 403.733 548.156 408C552.556 412.267 554.756 418.367 554.756 426.3C554.756 434.3 552.59 440.433 548.256 444.7C543.923 448.9 537.156 451 527.956 451ZM527.956 438.4C531.69 438.4 534.356 437.467 535.956 435.6C537.556 433.733 538.356 430.633 538.356 426.3C538.356 421.967 537.556 418.867 535.956 417C534.356 415.133 531.69 414.2 527.956 414.2C524.29 414.2 521.656 415.133 520.056 417C518.456 418.867 517.656 421.967 517.656 426.3C517.656 430.633 518.456 433.733 520.056 435.6C521.656 437.467 524.29 438.4 527.956 438.4ZM566.485 395.1V383H583.985V395.1H566.485ZM566.685 473.4C561.952 473.4 558.018 472.733 554.885 471.4V460.5C556.885 461.167 558.885 461.5 560.885 461.5C565.552 461.5 567.885 459.5 567.885 455.5V414.5H560.885L562.285 402.6H583.985V456.9C583.985 461.767 582.585 465.733 579.785 468.8C576.985 471.867 572.618 473.4 566.685 473.4ZM619.574 451C611.308 451 604.674 448.967 599.674 444.9C594.674 440.767 592.174 434.567 592.174 426.3C592.174 418.767 594.241 412.767 598.374 408.3C602.508 403.833 608.708 401.6 616.974 401.6C624.508 401.6 630.341 403.533 634.474 407.4C638.608 411.267 640.674 416.467 640.674 423V431.5H607.074C607.808 434.633 609.508 436.833 612.174 438.1C614.908 439.3 618.608 439.9 623.274 439.9C625.874 439.9 628.508 439.667 631.174 439.2C633.908 438.733 636.174 438.133 637.974 437.4V447.9C635.708 448.967 633.008 449.733 629.874 450.2C626.741 450.733 623.308 451 619.574 451ZM607.074 422.2H626.674V420.1C626.674 417.767 625.974 415.933 624.574 414.6C623.174 413.2 620.808 412.5 617.474 412.5C613.608 412.5 610.908 413.3 609.374 414.9C607.841 416.433 607.074 418.867 607.074 422.2ZM668.362 451C662.495 451 658.162 449.5 655.362 446.5C652.628 443.5 651.262 439.367 651.262 434.1V414.8H644.862V402.6H651.262V392.7L667.362 388.4V402.6H678.862L678.162 414.8H667.362V433C667.362 435.267 667.928 436.867 669.062 437.8C670.195 438.667 671.895 439.1 674.162 439.1C676.095 439.1 678.062 438.767 680.062 438.1V449C676.928 450.333 673.028 451 668.362 451ZM710.964 451C701.831 451 695.097 448.9 690.764 444.7C686.431 440.433 684.264 434.3 684.264 426.3C684.264 418.367 686.431 412.267 690.764 408C695.164 403.733 701.897 401.6 710.964 401.6C720.097 401.6 726.831 403.733 731.164 408C735.564 412.267 737.764 418.367 737.764 426.3C737.764 434.3 735.597 440.433 731.264 444.7C726.931 448.9 720.164 451 710.964 451ZM710.964 438.4C714.697 438.4 717.364 437.467 718.964 435.6C720.564 433.733 721.364 430.633 721.364 426.3C721.364 421.967 720.564 418.867 718.964 417C717.364 415.133 714.697 414.2 710.964 414.2C707.297 414.2 704.664 415.133 703.064 417C701.464 418.867 700.664 421.967 700.664 426.3C700.664 430.633 701.464 433.733 703.064 435.6C704.664 437.467 707.297 438.4 710.964 438.4ZM763.044 451C759.244 451 755.644 450.733 752.244 450.2C748.844 449.667 746.144 449 744.144 448.2V435.9C746.477 436.9 749.177 437.667 752.244 438.2C755.31 438.733 758.044 439 760.444 439C763.31 439 765.377 438.867 766.644 438.6C767.977 438.333 768.644 437.6 768.644 436.4C768.644 435.067 767.577 434.067 765.444 433.4C763.31 432.733 760.377 431.767 756.644 430.5C752.31 428.967 749.01 427.2 746.744 425.2C744.544 423.133 743.444 420.1 743.444 416.1C743.444 411.433 745.177 407.867 748.644 405.4C752.177 402.867 757.777 401.6 765.444 401.6C768.444 401.6 771.41 401.833 774.344 402.3C777.277 402.767 779.677 403.3 781.544 403.9V416C779.677 415.133 777.544 414.5 775.144 414.1C772.744 413.7 770.577 413.5 768.644 413.5C766.177 413.5 764.077 413.667 762.344 414C760.677 414.267 759.844 414.967 759.844 416.1C759.844 417.367 760.777 418.267 762.644 418.8C764.51 419.267 767.21 420.067 770.744 421.2C774.477 422.333 777.377 423.567 779.444 424.9C781.51 426.167 782.977 427.7 783.844 429.5C784.71 431.3 785.144 433.567 785.144 436.3C785.144 441.033 783.277 444.667 779.544 447.2C775.81 449.733 770.31 451 763.044 451ZM840.18 451C831.913 451 825.28 448.967 820.28 444.9C815.28 440.767 812.78 434.567 812.78 426.3C812.78 418.767 814.846 412.767 818.98 408.3C823.113 403.833 829.313 401.6 837.58 401.6C845.113 401.6 850.946 403.533 855.08 407.4C859.213 411.267 861.28 416.467 861.28 423V431.5H827.68C828.413 434.633 830.113 436.833 832.78 438.1C835.513 439.3 839.213 439.9 843.88 439.9C846.48 439.9 849.113 439.667 851.78 439.2C854.513 438.733 856.78 438.133 858.58 437.4V447.9C856.313 448.967 853.613 449.733 850.48 450.2C847.346 450.733 843.913 451 840.18 451ZM827.68 422.2H847.28V420.1C847.28 417.767 846.58 415.933 845.18 414.6C843.78 413.2 841.413 412.5 838.08 412.5C834.213 412.5 831.513 413.3 829.98 414.9C828.446 416.433 827.68 418.867 827.68 422.2ZM869.467 450V402.6H884.367L884.867 406.8C887.001 405.267 889.401 404.033 892.067 403.1C894.734 402.1 897.601 401.6 900.667 401.6C903.867 401.6 906.367 402.1 908.167 403.1C909.967 404.033 911.367 405.367 912.367 407.1C914.567 405.5 917.034 404.2 919.767 403.2C922.567 402.133 925.834 401.6 929.567 401.6C935.101 401.6 939.167 403.033 941.767 405.9C944.367 408.767 945.667 413.133 945.667 419V450H929.767V420.9C929.767 418.3 929.201 416.433 928.067 415.3C927.001 414.1 925.234 413.5 922.767 413.5C921.234 413.5 919.734 413.833 918.267 414.5C916.801 415.1 915.567 415.967 914.567 417.1C914.701 417.833 914.767 418.533 914.767 419.2C914.834 419.867 914.867 420.667 914.867 421.6V450H899.867V420.7C899.867 418.3 899.434 416.5 898.567 415.3C897.767 414.1 896.201 413.5 893.867 413.5C892.201 413.5 890.634 413.933 889.167 414.8C887.701 415.667 886.367 416.667 885.167 417.8V450H869.467ZM216.83 549V471.72H248.15C259.59 471.72 268.07 474.76 273.59 480.84C279.11 486.84 281.87 496.84 281.87 510.84C281.87 524.04 279.15 533.72 273.71 539.88C268.27 545.96 259.75 549 248.15 549H216.83ZM229.91 538.92H246.11C251.15 538.92 255.35 538.2 258.71 536.76C262.07 535.24 264.59 532.44 266.27 528.36C267.95 524.28 268.79 518.44 268.79 510.84C268.79 503.24 268.03 497.36 266.51 493.2C264.99 489.04 262.55 486.12 259.19 484.44C255.91 482.76 251.55 481.92 246.11 481.92H229.91V538.92ZM323.559 550.2C313.639 550.2 305.959 547.76 300.519 542.88C295.079 538 292.359 530.52 292.359 520.44C292.359 511.32 294.679 504.12 299.319 498.84C303.959 493.56 310.999 490.92 320.439 490.92C329.079 490.92 335.559 493.2 339.879 497.76C344.279 502.24 346.479 508.04 346.479 515.16V525.72H304.839C305.479 531.24 307.479 535.04 310.839 537.12C314.199 539.2 319.319 540.24 326.199 540.24C329.079 540.24 332.039 539.96 335.079 539.4C338.119 538.84 340.759 538.12 342.999 537.24V546.84C340.439 547.96 337.479 548.8 334.119 549.36C330.839 549.92 327.319 550.2 323.559 550.2ZM304.839 517.2H334.959V513.24C334.959 509.32 333.879 506.28 331.719 504.12C329.559 501.88 325.919 500.76 320.799 500.76C314.719 500.76 310.519 502.08 308.199 504.72C305.959 507.36 304.839 511.52 304.839 517.2ZM377.586 550.2C373.666 550.2 369.906 549.92 366.306 549.36C362.786 548.8 359.866 548.12 357.546 547.32V536.28C360.266 537.32 363.266 538.12 366.546 538.68C369.826 539.24 372.946 539.52 375.906 539.52C380.386 539.52 383.586 539.12 385.506 538.32C387.426 537.52 388.386 535.96 388.386 533.64C388.386 531.96 387.786 530.64 386.586 529.68C385.466 528.72 383.746 527.84 381.426 527.04C379.186 526.24 376.306 525.28 372.786 524.16C369.426 523.04 366.506 521.84 364.026 520.56C361.546 519.2 359.626 517.48 358.266 515.4C356.906 513.32 356.226 510.6 356.226 507.24C356.226 502.04 358.106 498.04 361.866 495.24C365.626 492.36 371.666 490.92 379.986 490.92C383.266 490.92 386.386 491.16 389.346 491.64C392.306 492.12 394.826 492.72 396.906 493.44V504.36C394.666 503.48 392.186 502.8 389.466 502.32C386.826 501.84 384.346 501.6 382.026 501.6C377.866 501.6 374.706 501.96 372.546 502.68C370.466 503.4 369.426 504.84 369.426 507C369.426 509.24 370.506 510.84 372.666 511.8C374.906 512.68 378.466 513.92 383.346 515.52C387.826 516.88 391.386 518.32 394.026 519.84C396.666 521.36 398.546 523.2 399.666 525.36C400.866 527.44 401.466 530.16 401.466 533.52C401.466 539.12 399.426 543.32 395.346 546.12C391.266 548.84 385.346 550.2 377.586 550.2ZM441.333 550.2C431.413 550.2 423.733 547.76 418.293 542.88C412.853 538 410.133 530.52 410.133 520.44C410.133 511.32 412.453 504.12 417.093 498.84C421.733 493.56 428.773 490.92 438.213 490.92C446.853 490.92 453.333 493.2 457.653 497.76C462.053 502.24 464.253 508.04 464.253 515.16V525.72H422.613C423.253 531.24 425.253 535.04 428.613 537.12C431.973 539.2 437.093 540.24 443.973 540.24C446.853 540.24 449.813 539.96 452.853 539.4C455.893 538.84 458.533 538.12 460.773 537.24V546.84C458.213 547.96 455.253 548.8 451.893 549.36C448.613 549.92 445.093 550.2 441.333 550.2ZM422.613 517.2H452.733V513.24C452.733 509.32 451.653 506.28 449.493 504.12C447.333 501.88 443.693 500.76 438.573 500.76C432.493 500.76 428.293 502.08 425.973 504.72C423.733 507.36 422.613 511.52 422.613 517.2ZM476.986 549V492.12H488.986L489.586 498.12C492.146 496.12 495.186 494.44 498.706 493.08C502.306 491.64 506.266 490.92 510.586 490.92C517.946 490.92 523.306 492.64 526.666 496.08C530.026 499.52 531.706 504.88 531.706 512.16V549H518.746V512.76C518.746 508.36 517.826 505.28 515.986 503.52C514.226 501.76 510.866 500.88 505.906 500.88C502.946 500.88 500.026 501.48 497.146 502.68C494.346 503.88 491.986 505.44 490.066 507.36V549H476.986ZM563.354 549L540.914 492.12H554.474L570.434 536.28L586.394 492.12H599.834L577.514 549H563.354ZM633.366 550.2C623.126 550.2 615.606 547.64 610.806 542.52C606.086 537.4 603.726 530.08 603.726 520.56C603.726 511.04 606.126 503.72 610.926 498.6C615.726 493.48 623.206 490.92 633.366 490.92C643.606 490.92 651.126 493.48 655.926 498.6C660.726 503.72 663.126 511.04 663.126 520.56C663.126 530.08 660.726 537.4 655.926 542.52C651.206 547.64 643.686 550.2 633.366 550.2ZM633.366 539.16C639.366 539.16 643.606 537.72 646.086 534.84C648.646 531.88 649.926 527.12 649.926 520.56C649.926 514 648.646 509.28 646.086 506.4C643.606 503.52 639.366 502.08 633.366 502.08C627.446 502.08 623.206 503.52 620.646 506.4C618.166 509.28 616.926 514 616.926 520.56C616.926 527.12 618.166 531.88 620.646 534.84C623.206 537.72 627.446 539.16 633.366 539.16ZM690.013 550.2C685.373 550.2 681.853 549.08 679.453 546.84C677.053 544.52 675.853 540.72 675.853 535.44V468.12H688.933V534.24C688.933 536.48 689.333 538 690.133 538.8C690.933 539.6 692.133 540 693.733 540C695.653 540 697.493 539.76 699.253 539.28V548.76C697.733 549.32 696.253 549.68 694.813 549.84C693.453 550.08 691.853 550.2 690.013 550.2ZM721.674 549L699.234 492.12H712.794L728.754 536.28L744.714 492.12H758.154L735.834 549H721.674ZM771.59 480.24V469.44H785.87V480.24H771.59ZM772.67 549V502.08H764.03L765.23 492.12H785.75V549H772.67ZM801.009 549V492.12H813.009L813.609 498.12C816.409 495.88 819.489 494.12 822.849 492.84C826.209 491.56 829.809 490.92 833.649 490.92C837.729 490.92 840.889 491.6 843.129 492.96C845.449 494.24 847.209 496.04 848.409 498.36C851.049 496.2 854.089 494.44 857.529 493.08C860.969 491.64 865.089 490.92 869.889 490.92C876.449 490.92 881.289 492.6 884.409 495.96C887.529 499.32 889.089 504.48 889.089 511.44V549H876.249V512.76C876.249 508.36 875.329 505.28 873.489 503.52C871.649 501.76 868.649 500.88 864.489 500.88C861.769 500.88 859.169 501.36 856.689 502.32C854.289 503.28 852.209 504.72 850.449 506.64C850.689 507.52 850.849 508.44 850.929 509.4C851.009 510.36 851.049 511.4 851.049 512.52V549H838.929V512.88C838.929 508.72 838.209 505.68 836.769 503.76C835.329 501.84 832.609 500.88 828.609 500.88C825.809 500.88 823.129 501.56 820.569 502.92C818.089 504.2 815.849 505.76 813.849 507.6V549H801.009ZM931.411 550.2C921.491 550.2 913.811 547.76 908.371 542.88C902.931 538 900.211 530.52 900.211 520.44C900.211 511.32 902.531 504.12 907.171 498.84C911.811 493.56 918.851 490.92 928.291 490.92C936.931 490.92 943.411 493.2 947.731 497.76C952.131 502.24 954.331 508.04 954.331 515.16V525.72H912.691C913.331 531.24 915.331 535.04 918.691 537.12C922.051 539.2 927.171 540.24 934.051 540.24C936.931 540.24 939.891 539.96 942.931 539.4C945.971 538.84 948.611 538.12 950.851 537.24V546.84C948.291 547.96 945.331 548.8 941.971 549.36C938.691 549.92 935.171 550.2 931.411 550.2ZM912.691 517.2H942.811V513.24C942.811 509.32 941.731 506.28 939.571 504.12C937.411 501.88 933.771 500.76 928.651 500.76C922.571 500.76 918.371 502.08 916.051 504.72C913.811 507.36 912.691 511.52 912.691 517.2ZM967.064 549V492.12H979.064L979.664 498.12C982.224 496.12 985.264 494.44 988.784 493.08C992.384 491.64 996.344 490.92 1000.66 490.92C1008.02 490.92 1013.38 492.64 1016.74 496.08C1020.1 499.52 1021.78 504.88 1021.78 512.16V549H1008.82V512.76C1008.82 508.36 1007.9 505.28 1006.06 503.52C1004.3 501.76 1000.94 500.88 995.984 500.88C993.024 500.88 990.104 501.48 987.224 502.68C984.424 503.88 982.064 505.44 980.144 507.36V549H967.064ZM1058.16 550.2C1052.08 550.2 1047.52 548.6 1044.48 545.4C1041.52 542.12 1040.04 537.68 1040.04 532.08V502.32H1031.64V492.12H1040.04V479.04L1053 475.08V492.12H1068.12L1067.28 502.32H1053V531.36C1053 534.64 1053.76 536.96 1055.28 538.32C1056.8 539.6 1059.28 540.24 1062.72 540.24C1064.88 540.24 1067.16 539.84 1069.56 539.04V548.28C1066.44 549.56 1062.64 550.2 1058.16 550.2ZM1106.8 550.2C1096.56 550.2 1089.04 547.64 1084.24 542.52C1079.52 537.4 1077.16 530.08 1077.16 520.56C1077.16 511.04 1079.56 503.72 1084.36 498.6C1089.16 493.48 1096.64 490.92 1106.8 490.92C1117.04 490.92 1124.56 493.48 1129.36 498.6C1134.16 503.72 1136.56 511.04 1136.56 520.56C1136.56 530.08 1134.16 537.4 1129.36 542.52C1124.64 547.64 1117.12 550.2 1106.8 550.2ZM1106.8 539.16C1112.8 539.16 1117.04 537.72 1119.52 534.84C1122.08 531.88 1123.36 527.12 1123.36 520.56C1123.36 514 1122.08 509.28 1119.52 506.4C1117.04 503.52 1112.8 502.08 1106.8 502.08C1100.88 502.08 1096.64 503.52 1094.08 506.4C1091.6 509.28 1090.36 514 1090.36 520.56C1090.36 527.12 1091.6 531.88 1094.08 534.84C1096.64 537.72 1100.88 539.16 1106.8 539.16Z" fill="white"/>
<path d="M470.836 910L495.436 845.6H512.836L537.436 910H520.636L514.836 895.4H493.336L487.636 910H470.836ZM495.536 883.5H512.636L504.036 861.1L495.536 883.5ZM559.621 911C553.755 911 549.421 909.5 546.621 906.5C543.888 903.5 542.521 899.367 542.521 894.1V874.8H536.121V862.6H542.521V852.7L558.621 848.4V862.6H570.121L569.421 874.8H558.621V893C558.621 895.267 559.188 896.867 560.321 897.8C561.455 898.667 563.155 899.1 565.421 899.1C567.355 899.1 569.321 898.767 571.321 898.1V909C568.188 910.333 564.288 911 559.621 911ZM594.424 857.8L602.824 838.2H616.024L606.824 857.8H594.424ZM602.924 911C594.657 911 588.024 908.967 583.024 904.9C578.024 900.767 575.524 894.567 575.524 886.3C575.524 878.767 577.59 872.767 581.724 868.3C585.857 863.833 592.057 861.6 600.324 861.6C607.857 861.6 613.69 863.533 617.824 867.4C621.957 871.267 624.024 876.467 624.024 883V891.5H590.424C591.157 894.633 592.857 896.833 595.524 898.1C598.257 899.3 601.957 899.9 606.624 899.9C609.224 899.9 611.857 899.667 614.524 899.2C617.257 898.733 619.524 898.133 621.324 897.4V907.9C619.057 908.967 616.357 909.733 613.224 910.2C610.09 910.733 606.657 911 602.924 911ZM590.424 882.2H610.024V880.1C610.024 877.767 609.324 875.933 607.924 874.6C606.524 873.2 604.157 872.5 600.824 872.5C596.957 872.5 594.257 873.3 592.724 874.9C591.19 876.433 590.424 878.867 590.424 882.2ZM653.696 910V845.6H669.596L687.096 881.3L704.496 845.6H720.296V910H704.196V873L691.496 899H682.596L669.796 873V910H653.696ZM745.254 911C742.254 911 739.454 910.467 736.854 909.4C734.32 908.333 732.287 906.7 730.754 904.5C729.22 902.233 728.454 899.433 728.454 896.1C728.454 891.233 730.087 887.433 733.354 884.7C736.687 881.9 741.654 880.5 748.254 880.5H761.454V879.4C761.454 877 760.654 875.3 759.054 874.3C757.454 873.233 754.454 872.7 750.054 872.7C744.654 872.7 739.354 873.533 734.154 875.2V864.8C736.487 863.867 739.32 863.1 742.654 862.5C746.054 861.9 749.62 861.6 753.354 861.6C760.687 861.6 766.42 863.1 770.554 866.1C774.754 869.1 776.854 873.867 776.854 880.4V910H762.754L761.954 906C760.22 907.6 757.987 908.833 755.254 909.7C752.587 910.567 749.254 911 745.254 911ZM750.354 901.1C752.887 901.1 755.087 900.667 756.954 899.8C758.82 898.933 760.32 897.833 761.454 896.5V889.8H750.054C745.32 889.8 742.954 891.7 742.954 895.5C742.954 897.233 743.554 898.6 744.754 899.6C745.954 900.6 747.82 901.1 750.354 901.1ZM789.708 855.1V843H807.208V855.1H789.708ZM791.008 910V874.5H784.008L785.408 862.6H807.108V910H791.008ZM834.968 911C831.168 911 827.568 910.733 824.168 910.2C820.768 909.667 818.068 909 816.068 908.2V895.9C818.401 896.9 821.101 897.667 824.168 898.2C827.234 898.733 829.968 899 832.368 899C835.234 899 837.301 898.867 838.568 898.6C839.901 898.333 840.568 897.6 840.568 896.4C840.568 895.067 839.501 894.067 837.368 893.4C835.234 892.733 832.301 891.767 828.568 890.5C824.234 888.967 820.934 887.2 818.668 885.2C816.468 883.133 815.368 880.1 815.368 876.1C815.368 871.433 817.101 867.867 820.568 865.4C824.101 862.867 829.701 861.6 837.368 861.6C840.368 861.6 843.334 861.833 846.268 862.3C849.201 862.767 851.601 863.3 853.468 863.9V876C851.601 875.133 849.468 874.5 847.068 874.1C844.668 873.7 842.501 873.5 840.568 873.5C838.101 873.5 836.001 873.667 834.268 874C832.601 874.267 831.768 874.967 831.768 876.1C831.768 877.367 832.701 878.267 834.568 878.8C836.434 879.267 839.134 880.067 842.668 881.2C846.401 882.333 849.301 883.567 851.368 884.9C853.434 886.167 854.901 887.7 855.768 889.5C856.634 891.3 857.068 893.567 857.068 896.3C857.068 901.033 855.201 904.667 851.468 907.2C847.734 909.733 842.234 911 834.968 911ZM864.219 892.4L863.619 862.5V845.6H879.719V862.5L879.119 892.4H864.219ZM863.219 910V898.4H880.119V910H863.219Z" fill="white"/>
</svg>
