<svg width="30" height="29" viewBox="0 0 30 29" fill="none" xmlns="http://www.w3.org/2000/svg">
<path fill-rule="evenodd" clip-rule="evenodd" d="M15.286 0C7.33871 0 0.901794 6.43692 0.901794 14.3842C0.901794 20.7492 5.01926 26.1253 10.737 28.0312C11.4562 28.157 11.7259 27.7255 11.7259 27.3479C11.7259 27.0063 11.7079 25.8735 11.7079 24.6689C8.09388 25.3341 7.15891 23.7878 6.87123 22.9787C6.7094 22.5652 6.00818 21.2886 5.39685 20.947C4.8934 20.6773 4.17419 20.012 5.37887 19.994C6.51162 19.976 7.32073 21.0369 7.59043 21.4684C8.88501 23.644 10.9527 23.0327 11.7798 22.6551C11.9057 21.7201 12.2833 21.0908 12.6968 20.7312C9.49634 20.3716 6.15202 19.131 6.15202 13.629C6.15202 12.0647 6.7094 10.7702 7.62639 9.76326C7.48255 9.40365 6.97911 7.92928 7.77024 5.95145C7.77024 5.95145 8.97491 5.57387 11.7259 7.42583C12.8766 7.10219 14.0993 6.94036 15.3219 6.94036C16.5446 6.94036 17.7672 7.10219 18.918 7.42583C21.6689 5.55589 22.8736 5.95145 22.8736 5.95145C23.6647 7.92928 23.1613 9.40365 23.0175 9.76326C23.9344 10.7702 24.4918 12.0467 24.4918 13.629C24.4918 19.1489 21.1295 20.3716 17.9291 20.7312C18.4505 21.1807 18.9 22.0437 18.9 23.3923C18.9 25.3161 18.882 26.8624 18.882 27.3479C18.882 27.7255 19.1517 28.175 19.8709 28.0312C25.5527 26.1253 29.6701 20.7312 29.6701 14.3842C29.6701 6.43692 23.2332 0 15.286 0Z" fill="#FFFBEB"/>
</svg>
