<svg width="30" height="29" viewBox="0 0 30 29" fill="none" xmlns="http://www.w3.org/2000/svg">
<path fill-rule="evenodd" clip-rule="evenodd" d="M15.286 0.293259C7.33871 0.293259 0.901794 6.73018 0.901794 14.6774C0.901794 21.0424 5.01926 26.4185 10.737 28.3244C11.4562 28.4503 11.7259 28.0188 11.7259 27.6412C11.7259 27.2995 11.7079 26.1668 11.7079 24.9621C8.09388 25.6274 7.15891 24.0811 6.87123 23.272C6.7094 22.8584 6.00818 21.5818 5.39685 21.2402C4.8934 20.9705 4.17419 20.3052 5.37887 20.2873C6.51162 20.2693 7.32073 21.3301 7.59043 21.7616C8.88501 23.9372 10.9527 23.3259 11.7798 22.9483C11.9057 22.0134 12.2833 21.3841 12.6968 21.0244C9.49634 20.6648 6.15202 19.4242 6.15202 13.9223C6.15202 12.358 6.7094 11.0634 7.62639 10.0565C7.48255 9.69691 6.97911 8.22253 7.77024 6.24471C7.77024 6.24471 8.97491 5.86713 11.7259 7.71909C12.8766 7.39544 14.0993 7.23362 15.3219 7.23362C16.5446 7.23362 17.7672 7.39544 18.918 7.71909C21.6689 5.84915 22.8736 6.24471 22.8736 6.24471C23.6647 8.22253 23.1613 9.69691 23.0175 10.0565C23.9344 11.0634 24.4918 12.34 24.4918 13.9223C24.4918 19.4422 21.1295 20.6648 17.9291 21.0244C18.4505 21.474 18.9 22.337 18.9 23.6855C18.9 25.6094 18.882 27.1557 18.882 27.6412C18.882 28.0188 19.1517 28.4683 19.8709 28.3244C25.5527 26.4185 29.6701 21.0244 29.6701 14.6774C29.6701 6.73018 23.2332 0.293259 15.286 0.293259Z" fill="#251749"/>
</svg>
