<svg width="35" height="35" viewBox="0 0 35 35" fill="none" xmlns="http://www.w3.org/2000/svg">
<path d="M17.4999 0C27.1655 0 35 7.83562 35 17.5001C35 27.1645 27.1655 35 17.4999 35C7.83442 35 0 27.1644 0 17.5001C0 7.83574 7.83454 0 17.4999 0Z" fill="#0A1128"/>
<path d="M9.86117 24.045H13.1381V13.1228H9.86117V24.045ZM22.6275 12.7444C21.0371 12.7444 19.6142 13.3252 18.6047 14.6071V13.0868H15.3158V24.0451H18.6047V18.1192C18.6047 16.8668 19.7521 15.6451 21.1892 15.6451C22.6264 15.6451 22.9808 16.8668 22.9808 18.0885V24.044H26.2577V17.8446C26.2576 13.5385 24.2189 12.7444 22.6275 12.7444ZM11.4843 12.0313C12.3899 12.0313 13.125 11.2962 13.125 10.3906C13.125 9.48495 12.3899 8.75003 11.4843 8.75003C10.5787 8.75003 9.84363 9.48507 9.84363 10.3907C9.84363 11.2963 10.5787 12.0313 11.4843 12.0313Z" fill="white"/>
</svg>
