<svg width="28" height="28" viewBox="0 0 28 28" fill="none" xmlns="http://www.w3.org/2000/svg">
<path fill-rule="evenodd" clip-rule="evenodd" d="M28 14C28 6.2685 21.7324 0 14 0C6.26763 0 0 6.26859 0 14C0 21.7315 6.26753 28 14 28C21.7324 28 28 21.7316 28 14ZM10.5105 19.236H7.88897V10.4982H10.5105V19.236ZM14.8838 11.6857C15.6914 10.6602 16.8297 10.1956 18.102 10.1956C19.3751 10.1956 21.0061 10.8308 21.0062 14.2757V19.2352H18.3847V14.4708C18.3847 13.4934 18.1011 12.516 16.9514 12.516C15.8017 12.516 14.8838 13.4934 14.8838 14.4953V19.2361H12.2527V10.4695H14.8838V11.6857ZM10.5 8.31248C10.5 9.03699 9.91199 9.62502 9.18748 9.62502C8.46297 9.62502 7.87494 9.03708 7.87494 8.31257C7.87494 7.58806 8.46297 7.00003 9.18748 7.00003C9.91199 7.00003 10.5 7.58796 10.5 8.31248Z" fill="#FFFBEB"/>
</svg>
