<svg width="173" height="172" viewBox="0 0 173 172" fill="none" xmlns="http://www.w3.org/2000/svg">
<g filter="url(#filter0_d_105_142)">
<circle cx="86.757" cy="81.7965" r="35.7965" fill="#001F54"/>
</g>
<path d="M71.6521 92.391V69.6252C71.6521 69.4703 71.7185 69.3818 71.8734 69.3818C72.2496 69.3818 72.6037 69.3818 73.1128 69.3597C73.6218 69.3376 74.1972 69.3376 74.7948 69.3155C75.3923 69.2933 76.0341 69.2933 76.7202 69.2712C77.4063 69.2491 78.0702 69.2491 78.7341 69.2491C80.5489 69.2491 82.0539 69.4703 83.2932 69.9349C84.4042 70.3121 85.4172 70.9318 86.2588 71.7491C86.972 72.4644 87.5229 73.3245 87.8744 74.2713C88.2094 75.1933 88.3817 76.1665 88.3834 77.1474C88.3834 79.0501 87.9408 80.6209 87.0555 81.8599C86.1662 83.0971 84.9245 84.0378 83.4924 84.559C81.9875 85.1121 80.3276 85.3113 78.5128 85.3113C77.9817 85.3113 77.6276 85.3113 77.4063 85.2891C77.1849 85.267 76.8751 85.267 76.4546 85.267V92.3689C76.4596 92.4053 76.4571 92.4423 76.4475 92.4778C76.4378 92.5132 76.4212 92.5464 76.3985 92.5753C76.3758 92.6041 76.3475 92.6282 76.3153 92.6459C76.2831 92.6637 76.2477 92.6748 76.2112 92.6786H71.9177C71.7406 92.6786 71.6521 92.5901 71.6521 92.391ZM76.4767 73.6518V81.0855C76.7866 81.1077 77.0743 81.1298 77.3399 81.1298H78.5128C79.3768 81.1308 80.2356 80.9964 81.0579 80.7315C81.7635 80.5241 82.3938 80.1169 82.8727 79.559C83.3375 79.0059 83.5588 78.2536 83.5588 77.2802C83.5796 76.5888 83.4031 75.9058 83.0498 75.3111C82.6807 74.7367 82.138 74.2949 81.5006 74.05C80.6697 73.7247 79.7807 73.5741 78.8891 73.6076C78.3136 73.6076 77.8046 73.6076 77.3841 73.6297C77.0816 73.6099 76.7779 73.6173 76.4767 73.6518V73.6518Z" fill="#31A8FF"/>
<path d="M102.193 79.736C101.525 79.3841 100.81 79.1308 100.069 78.9837C99.2552 78.7995 98.4242 78.7031 97.59 78.6961C97.1421 78.6807 96.6945 78.7329 96.2621 78.851C95.9865 78.9083 95.742 79.066 95.5761 79.2935C95.4643 79.473 95.4031 79.6794 95.399 79.8908C95.4093 80.1013 95.4869 80.3029 95.6203 80.4661C95.8301 80.712 96.0857 80.9149 96.3728 81.0634C96.8818 81.3289 97.413 81.5723 97.9441 81.7935C99.1398 82.1959 100.284 82.738 101.352 83.4086C102.079 83.8654 102.68 84.4967 103.101 85.2449C103.456 85.9507 103.631 86.7337 103.61 87.5237C103.628 88.5694 103.327 89.5958 102.747 90.4662C102.129 91.3494 101.268 92.0336 100.268 92.4352C99.1835 92.8999 97.8556 93.1432 96.2621 93.1432C95.2518 93.1473 94.2436 93.051 93.2523 92.8556C92.4717 92.7208 91.7126 92.4827 90.9949 92.1476C90.9177 92.1089 90.8536 92.0485 90.8103 91.9738C90.767 91.8991 90.7466 91.8134 90.7514 91.7273V87.8777C90.7495 87.8399 90.7565 87.8021 90.7719 87.7675C90.7873 87.7329 90.8106 87.7025 90.84 87.6785C90.8711 87.6604 90.9073 87.6527 90.9432 87.6567C90.9791 87.6607 91.0127 87.6761 91.0391 87.7007C91.8917 88.2031 92.8176 88.5689 93.7834 88.7848C94.6362 89.0066 95.5138 89.1181 96.3949 89.1166C97.2359 89.1166 97.8335 89.006 98.2318 88.8069C98.4095 88.7248 98.5601 88.5938 98.666 88.4292C98.7718 88.2647 98.8285 88.0733 98.8294 87.8777C98.8294 87.5679 98.6523 87.2803 98.2982 86.9927C97.9441 86.7051 97.2138 86.3732 96.1294 85.9529C95.0169 85.561 93.9604 85.0255 92.9867 84.3599C92.2932 83.8658 91.7186 83.2234 91.3047 82.4794C90.9515 81.7806 90.7767 81.0054 90.7957 80.2227C90.799 79.2786 91.0591 78.3532 91.5482 77.5457C92.1104 76.6575 92.9173 75.9507 93.872 75.5102C94.9121 74.9793 96.2179 74.7359 97.7892 74.7359C98.7076 74.7361 99.6247 74.8027 100.534 74.935C101.187 75.0234 101.826 75.1944 102.437 75.4439C102.534 75.4783 102.614 75.5499 102.658 75.643C102.684 75.7293 102.698 75.8185 102.702 75.9085V79.5147C102.703 79.5577 102.693 79.6002 102.674 79.6386C102.654 79.6771 102.626 79.7104 102.592 79.736C102.463 79.7822 102.322 79.7822 102.193 79.736Z" fill="#31A8FF"/>
<defs>
<filter id="filter0_d_105_142" x="0.960449" y="0" width="171.593" height="171.593" filterUnits="userSpaceOnUse" color-interpolation-filters="sRGB">
<feFlood flood-opacity="0" result="BackgroundImageFix"/>
<feColorMatrix in="SourceAlpha" type="matrix" values="0 0 0 0 0 0 0 0 0 0 0 0 0 0 0 0 0 0 127 0" result="hardAlpha"/>
<feOffset dy="4"/>
<feGaussianBlur stdDeviation="25"/>
<feComposite in2="hardAlpha" operator="out"/>
<feColorMatrix type="matrix" values="0 0 0 0 0 0 0 0 0 0 0 0 0 0 0 0 0 0 0.5 0"/>
<feBlend mode="normal" in2="BackgroundImageFix" result="effect1_dropShadow_105_142"/>
<feBlend mode="normal" in="SourceGraphic" in2="effect1_dropShadow_105_142" result="shape"/>
</filter>
</defs>
</svg>
